<svg width="100" height="100" viewBox="0 0 100 100" fill="none" xmlns="http://www.w3.org/2000/svg">
<g clip-path="url(#clip0)">
<path d="M12.5006 37.501C9.05069 37.501 6.25073 40.3009 6.25073 43.7509V68.7505C6.25073 72.2005 9.05069 75.0005 12.5006 75.0005C15.9506 75.0005 18.7506 72.2005 18.7506 68.7505V43.7509C18.7506 40.3009 15.9506 37.501 12.5006 37.501Z" fill="#8BC34A"/>
<path d="M87.4996 37.501C84.0497 37.501 81.2497 40.3009 81.2497 43.7509V68.7505C81.2497 72.2005 84.0497 75.0005 87.4996 75.0005C90.9496 75.0005 93.7495 72.2005 93.7495 68.7505V43.7509C93.7495 40.3009 90.9496 37.501 87.4996 37.501Z" fill="#8BC34A"/>
<path d="M25.0005 75.3628C25.0005 78.8127 27.8004 81.6127 31.2504 81.6127V93.75C31.2504 97.2 34.0503 99.9999 37.5003 99.9999C40.9502 99.9999 43.7502 97.2 43.7502 93.75V81.6127H56.25V93.75C56.25 97.2 59.05 99.9999 62.5 99.9999C65.9499 99.9999 68.7499 97.2 68.7499 93.75V81.6127C72.1998 81.6127 74.9998 78.8127 74.9998 75.3628V37.8633H25.0005V75.3628Z" fill="#8BC34A"/>
<path d="M65.5999 11.8575L71.1623 5.11382C72.2623 3.78259 72.0748 1.81386 70.7436 0.713878C69.4061 -0.379857 67.4436 -0.198609 66.3436 1.13262L60.2625 8.50127C57.125 7.08254 53.6688 6.2513 50.0001 6.2513C46.2814 6.2513 42.7815 7.11379 39.6128 8.57627L33.6941 1.17637C32.6129 -0.16736 30.6504 -0.392356 29.3004 0.688879C27.9567 1.77011 27.7379 3.73259 28.8129 5.08257L34.3003 11.945C28.6692 16.5262 25.0005 23.4261 25.0005 31.251H74.9998C74.9998 23.3761 71.2873 16.4387 65.5999 11.8575ZM43.7502 21.8761C42.0252 21.8761 40.6252 20.4761 40.6252 18.7511C40.6252 17.0262 42.0252 15.6262 43.7502 15.6262C45.4752 15.6262 46.8752 17.0262 46.8752 18.7511C46.8752 20.4761 45.4752 21.8761 43.7502 21.8761ZM56.25 21.8761C54.5251 21.8761 53.1251 20.4761 53.1251 18.7511C53.1251 17.0262 54.5251 15.6262 56.25 15.6262C57.975 15.6262 59.375 17.0262 59.375 18.7511C59.375 20.4761 57.975 21.8761 56.25 21.8761Z" fill="#8BC34A"/>
</g>
<defs>
<clipPath id="clip0">
<rect width="100" height="100" fill="white"/>
</clipPath>
</defs>
</svg>
