<svg width="100" height="100" viewBox="0 0 100 100" fill="none" xmlns="http://www.w3.org/2000/svg">
<path d="M90.2046 69.4743C89.8741 68.9633 89.3368 68.6223 88.7337 68.5409C80.8 67.5046 75.2084 60.233 76.2447 52.2992C76.9768 46.695 80.9009 42.0283 86.2964 40.3453C87.3921 39.9941 87.9958 38.8212 87.6446 37.7256C87.5899 37.5551 87.5136 37.3922 87.4173 37.241C83.7765 30.6704 77.3029 26.1515 69.88 24.9995C66.1394 25.178 62.4531 25.9677 58.9676 27.337C56.4643 28.3444 53.8209 28.9614 51.1301 29.1661C48.4393 28.9614 45.796 28.3444 43.2927 27.337C39.8072 25.9677 36.1209 25.178 32.3803 24.9995C24.6013 24.9995 9.46393 36.0285 9.46393 56.2492C9.46393 75.4656 23.4804 99.9988 34.4637 99.9988C38.6545 100.036 42.7949 99.0826 46.547 97.2154C47.96 96.4361 49.5219 95.9646 51.1303 95.832C52.7385 95.9646 54.3006 96.4361 55.7137 97.2154C59.4658 99.0826 63.6062 100.036 67.797 99.9988C76.5053 99.9988 86.3343 85.0489 90.4508 71.195C90.6231 70.6131 90.5333 69.9846 90.2046 69.4743Z" fill="#37474F"/>
<path d="M49.0466 24.9998C61.6972 24.9859 71.9493 14.734 71.963 2.08338C71.963 0.932803 71.0303 0 69.8798 0C57.2291 0.0138671 46.9771 10.2657 46.9634 22.9164C46.9632 24.067 47.896 24.9998 49.0466 24.9998Z" fill="#37474F"/>
</svg>
