<svg width="40" height="40" viewBox="0 0 40 40" fill="none" xmlns="http://www.w3.org/2000/svg">
<path d="M19.9993 40C8.97219 40 0.000976562 31.0288 0.000976562 20.0015C0.000976562 8.97281 8.97219 0 19.9993 0C31.0265 0 39.9978 8.97281 39.9978 20.0015C39.9978 21.4375 38.8338 22.6015 37.3978 22.6015C35.9619 22.6015 34.7979 21.4375 34.7979 20.0015C34.7979 11.84 28.1591 5.19993 19.9994 5.19993C11.8398 5.19993 5.201 11.84 5.201 20.0015C5.201 28.1615 11.8398 34.8 19.9994 34.8C22.6103 34.8 25.1695 34.1172 27.3999 32.8248C28.6431 32.1051 30.2335 32.5288 30.9531 33.7708C31.6731 35.0132 31.2491 36.604 30.0071 37.324C26.9849 39.0748 23.5245 40 19.9993 40Z" fill="url(#paint0_linear)"/>
<path d="M19.9998 31.3061C13.7702 31.3061 8.70215 26.2365 8.70215 20.0053C8.70215 13.7737 13.7702 8.7041 19.9998 8.7041C26.2325 8.7041 31.3037 13.7737 31.3037 20.0053C31.3037 26.2365 26.2326 31.3061 19.9998 31.3061ZM19.9998 13.904C16.6378 13.904 13.9022 16.6409 13.9022 20.0052C13.9022 23.3692 16.6378 26.106 19.9998 26.106C23.3654 26.106 26.1037 23.3691 26.1037 20.0052C26.1038 16.6409 23.3654 13.904 19.9998 13.904Z" fill="url(#paint1_linear)"/>
<path d="M33.0523 31.306C31.203 31.306 29.4611 30.5845 28.1471 29.2752C26.8347 27.9893 26.1035 26.2368 26.1035 24.3572V20.0052C26.1035 18.5693 27.2675 17.4053 28.7035 17.4053C30.1395 17.4053 31.3034 18.5693 31.3034 20.0052V24.3572C31.3034 24.6904 31.3903 25.1724 31.8027 25.5768C32.1507 25.9236 32.589 26.106 33.0523 26.106C33.5227 26.106 33.9643 25.9236 34.2967 25.5925C34.6191 25.2704 34.7979 24.8308 34.7979 24.3573V20.0053C34.7979 18.5694 35.9619 17.4054 37.3979 17.4054C38.8338 17.4054 39.9978 18.5694 39.9978 20.0053V24.3573C39.9978 26.2201 39.2778 27.9657 37.9702 29.2729C36.6539 30.5844 34.9079 31.306 33.0523 31.306Z" fill="url(#paint2_linear)"/>
<defs>
<linearGradient id="paint0_linear" x1="0.000976563" y1="0" x2="40.001" y2="39.9968" gradientUnits="userSpaceOnUse">
<stop stop-color="#005DA0"/>
<stop offset="1" stop-color="#001F8B"/>
</linearGradient>
<linearGradient id="paint1_linear" x1="8.70215" y1="8.7041" x2="31.3041" y2="31.3057" gradientUnits="userSpaceOnUse">
<stop stop-color="#005DA0"/>
<stop offset="1" stop-color="#001F8B"/>
</linearGradient>
<linearGradient id="paint2_linear" x1="26.1035" y1="17.4053" x2="40.0043" y2="31.2996" gradientUnits="userSpaceOnUse">
<stop stop-color="#005DA0"/>
<stop offset="1" stop-color="#001F8B"/>
</linearGradient>
</defs>
</svg>
