<svg width="24" height="24" viewBox="0 0 24 24" fill="none" xmlns="http://www.w3.org/2000/svg">
<path d="M6.893 19.7921C6.23196 19.7921 5.69421 20.3299 5.69421 20.9909C5.69421 21.6519 6.23201 22.1897 6.893 22.1897C7.55403 22.1897 8.09178 21.6519 8.09178 20.9909C8.09178 20.3299 7.55403 19.7921 6.893 19.7921Z" fill="black"/>
<path d="M17.0828 19.7921C16.4218 19.7921 15.884 20.3299 15.884 20.9909C15.884 21.6519 16.4218 22.1897 17.0828 22.1897C17.7438 22.1897 18.2816 21.6519 18.2816 20.9909C18.2816 20.3299 17.7438 19.7921 17.0828 19.7921Z" fill="black"/>
<path d="M20.4411 16.1958L24 4.80727H4.49545V4.50755C4.49545 3.02026 3.28547 1.81027 1.79817 1.81027H0V3.60844H1.79817C2.29392 3.60844 2.69728 4.01176 2.69728 4.50755V17.0949C2.69728 18.5822 3.90727 19.7921 5.39456 19.7921H6.89306H17.0828H20.3795V17.994H5.39456C4.89881 17.994 4.49545 17.5907 4.49545 17.0949V16.1958H20.4411ZM4.49545 6.60544H21.5541L20.6175 9.60244H4.49545V6.60544ZM4.49545 11.4006H20.0556L19.119 14.3976H4.49545V11.4006Z" fill="black"/>
</svg>
