<svg width="30" height="30" viewBox="0 0 30 30" fill="none" xmlns="http://www.w3.org/2000/svg">
<g clip-path="url(#clip0)">
<path d="M28.7499 1.25H1.25002C0.559643 1.25 0 1.80964 0 2.49995C0 3.19026 0.559643 3.74998 1.25002 3.74998H28.75C29.4404 3.74998 30 3.19033 30 2.49995C30 1.80957 29.4403 1.25 28.7499 1.25Z" fill="black"/>
<path d="M28.7499 13.7499H1.25002C0.559643 13.7499 0 14.3096 0 15C0 15.6903 0.559643 16.25 1.25002 16.25H28.75C29.4404 16.25 30 15.6903 30 15C30 14.3096 29.4403 13.7499 28.7499 13.7499Z" fill="black"/>
<path d="M28.7499 26.25H1.25002C0.559643 26.25 0 26.8096 0 27.5C0 28.1904 0.559643 28.75 1.25002 28.75H28.75C29.4404 28.75 30 28.1904 30 27.5C30 26.8096 29.4403 26.25 28.7499 26.25Z" fill="black"/>
</g>
<defs>
<clipPath id="clip0">
<rect width="30" height="30" fill="white"/>
</clipPath>
</defs>
</svg>
