<svg width="44" height="44" viewBox="0 0 44 44" fill="none" xmlns="http://www.w3.org/2000/svg">
<path d="M27.12 6.26015L22.995 4.19766C22.8995 4.14992 22.7942 4.12506 22.6875 4.12506C22.5808 4.12506 22.4755 4.14992 22.38 4.19766L18.255 6.26015C18.1408 6.31725 18.0448 6.40502 17.9777 6.51362C17.9106 6.62222 17.875 6.74737 17.875 6.87504V8.93754C17.875 9.11987 17.9474 9.29474 18.0764 9.42367C18.2053 9.5526 18.3802 9.62504 18.5625 9.62504V11C18.3802 11 18.2053 11.0725 18.0764 11.2014C17.9474 11.3303 17.875 11.5052 17.875 11.6875V13.75C17.875 13.9324 17.9474 14.1072 18.0764 14.2362C18.2053 14.3651 18.3802 14.4375 18.5625 14.4375H26.8125C26.9948 14.4375 27.1697 14.3651 27.2986 14.2362C27.4276 14.1072 27.5 13.9324 27.5 13.75V11.6875C27.5 11.5052 27.4276 11.3303 27.2986 11.2014C27.1697 11.0725 26.9948 11 26.8125 11V9.62504C26.9948 9.62504 27.1697 9.5526 27.2986 9.42367C27.4276 9.29474 27.5 9.11987 27.5 8.93754V6.87504C27.5 6.74737 27.4644 6.62222 27.3973 6.51362C27.3302 6.40502 27.2342 6.31725 27.12 6.26015ZM19.25 7.29991L22.6875 5.58116L26.125 7.29991V8.25004H19.25V7.29991ZM22 11V9.62504H23.375V11H22ZM19.9375 9.62504H20.625V11H19.9375V9.62504ZM26.125 13.0625H19.25V12.375H26.125V13.0625ZM25.4375 11H24.75V9.62504H25.4375V11Z" fill="black"/>
<path d="M19.9375 17.875C19.9375 18.0574 20.0099 18.2322 20.1389 18.3612C20.2678 18.4901 20.4427 18.5625 20.625 18.5625H24.75C24.8672 18.5625 24.9824 18.5326 25.0848 18.4755C25.1871 18.4184 25.2732 18.3361 25.3348 18.2365C25.3964 18.1368 25.4315 18.023 25.4368 17.9059C25.442 17.7888 25.4173 17.6724 25.3649 17.5675L24.6774 16.1925C24.595 16.0309 24.452 15.9084 24.2797 15.8517C24.1074 15.7951 23.9196 15.8088 23.7574 15.8899C23.5951 15.9711 23.4715 16.113 23.4135 16.2849C23.3555 16.4568 23.3677 16.6446 23.4476 16.8075L23.6376 17.1875H20.625C20.4427 17.1875 20.2678 17.26 20.1389 17.3889C20.0099 17.5178 19.9375 17.6927 19.9375 17.875Z" fill="black"/>
<path d="M24.7505 19.25H20.6255C20.5083 19.25 20.393 19.28 20.2907 19.337C20.1883 19.3941 20.1023 19.4764 20.0407 19.5761C19.979 19.6758 19.9439 19.7896 19.9387 19.9066C19.9334 20.0237 19.9582 20.1402 20.0106 20.245L20.6981 21.62C20.738 21.7014 20.7937 21.7742 20.8619 21.834C20.9301 21.8939 21.0095 21.9396 21.0955 21.9687C21.1814 21.9977 21.2723 22.0094 21.3628 22.0032C21.4533 21.9969 21.5417 21.9728 21.6229 21.9322C21.704 21.8916 21.7763 21.8354 21.8356 21.7667C21.895 21.698 21.9401 21.6183 21.9684 21.5321C21.9968 21.4459 22.0078 21.355 22.0008 21.2645C21.9939 21.174 21.9691 21.0858 21.9278 21.005L21.7378 20.625H24.7505C24.9328 20.625 25.1077 20.5526 25.2366 20.4236C25.3655 20.2947 25.438 20.1198 25.438 19.9375C25.438 19.7552 25.3655 19.5803 25.2366 19.4514C25.1077 19.3224 24.9328 19.25 24.7505 19.25Z" fill="black"/>
<path d="M39.1875 1.375H12.375C11.2814 1.37621 10.2328 1.81119 9.45952 2.58452C8.68619 3.35784 8.25121 4.40635 8.25 5.5V31.625H4.8125C3.90113 31.626 3.02739 31.9885 2.38295 32.6329C1.73852 33.2774 1.37602 34.1511 1.375 35.0625V37.125C1.375 37.3073 1.44743 37.4822 1.57636 37.6111C1.7053 37.7401 1.88016 37.8125 2.0625 37.8125H6.875V39.1875C6.87602 40.0989 7.23852 40.9726 7.88295 41.6171C8.52739 42.2615 9.40113 42.624 10.3125 42.625H33.6875C34.5989 42.624 35.4726 42.2615 36.1171 41.6171C36.7615 40.9726 37.124 40.0989 37.125 39.1875V8.25H41.9375C42.1198 8.25 42.2947 8.17757 42.4236 8.04864C42.5526 7.9197 42.625 7.74484 42.625 7.5625V4.8125C42.624 3.90113 42.2615 3.02739 41.6171 2.38295C40.9726 1.73852 40.0989 1.37602 39.1875 1.375ZM2.75 35.0625C2.75064 34.5157 2.96814 33.9915 3.3548 33.6048C3.74145 33.2181 4.26569 33.0006 4.8125 33H25.4391C24.9911 33.5942 24.7492 34.3183 24.75 35.0625V36.4375H2.75V35.0625ZM20.625 31.625V30.25H27.5V31.625H20.625ZM12.375 27.5H19.25V28.875H12.375V27.5ZM20.625 27.5H27.5V28.875H20.625V27.5ZM33 27.5V28.875H28.875V27.5H33ZM28.875 31.625V30.25H33V31.625H28.875ZM33 33V34.375H31.5563C31.4543 33.8763 31.2424 33.4065 30.936 33H33ZM31.625 35.75H33V37.125H31.625V35.75ZM33 26.125H12.375V24.75H33V26.125ZM12.375 30.25H19.25V31.625H12.375V30.25ZM10.3125 41.25C9.76569 41.2494 9.24145 41.0319 8.8548 40.6452C8.46814 40.2585 8.25064 39.7343 8.25 39.1875V37.8125H25.4375C25.6198 37.8125 25.7947 37.7401 25.9236 37.6111C26.0526 37.4822 26.125 37.3073 26.125 37.125V35.0625C26.125 34.5155 26.3423 33.9909 26.7291 33.6041C27.1159 33.2173 27.6405 33 28.1875 33C28.7345 33 29.2591 33.2173 29.6459 33.6041C30.0327 33.9909 30.25 34.5155 30.25 35.0625V39.1875C30.2492 39.9317 30.4911 40.6558 30.9391 41.25H10.3125ZM31.625 39.1875V38.5H33V41.1317C32.5982 40.9892 32.2504 40.7258 32.0042 40.3777C31.758 40.0296 31.6255 39.6138 31.625 39.1875ZM35.75 39.1875C35.7495 39.6138 35.617 40.0296 35.3708 40.3777C35.1246 40.7258 34.7768 40.9892 34.375 41.1317V24.5781C34.3747 24.2591 34.2478 23.9533 34.0222 23.7278C33.7967 23.5022 33.4909 23.3753 33.1719 23.375H12.2031C11.8841 23.3753 11.5783 23.5022 11.3528 23.7278C11.1272 23.9533 11.0003 24.2591 11 24.5781V31.625H9.625V5.5C9.62582 4.77091 9.91581 4.07191 10.4314 3.55636C10.9469 3.04081 11.6459 2.75082 12.375 2.75H36.4394C35.9913 3.34416 35.7492 4.0683 35.75 4.8125V39.1875ZM41.25 6.875H37.125V4.8125C37.125 4.26549 37.3423 3.74089 37.7291 3.35409C38.1159 2.9673 38.6405 2.75 39.1875 2.75C39.7345 2.75 40.2591 2.9673 40.6459 3.35409C41.0327 3.74089 41.25 4.26549 41.25 4.8125V6.875Z" fill="black"/>
</svg>
