<svg width="44" height="44" viewBox="0 0 44 44" fill="none" xmlns="http://www.w3.org/2000/svg">
<g clip-path="url(#clip0)">
<path d="M40.4194 4.85449H7.74563C5.77122 4.85449 4.16505 6.46273 4.16505 8.43955V9.02633H3.58059C1.60617 9.02633 0 10.6346 0 12.6114V35.5604C0 37.5371 1.60617 39.1454 3.58059 39.1454H36.2544C38.2288 39.1454 39.835 37.5372 39.835 35.5604V34.9736H40.4194C42.3938 34.9736 44 33.3654 44 31.3886V8.43955C44 6.46281 42.3938 4.85449 40.4194 4.85449ZM3.58059 10.7451H36.2544C37.281 10.7451 38.1162 11.5823 38.1162 12.6114V14.8496H1.71875V12.6114C1.71875 11.5823 2.55398 10.7451 3.58059 10.7451ZM1.71875 16.5683H38.1162V20.1878H1.71875V16.5683ZM36.2544 37.4267H3.58059C2.55398 37.4267 1.71875 36.5895 1.71875 35.5604V21.9066H38.1162V35.5604C38.1162 36.5895 37.281 37.4267 36.2544 37.4267ZM42.2812 31.3886C42.2812 32.4177 41.446 33.2549 40.4194 33.2549H39.835V12.6114C39.835 10.6346 38.2288 9.02633 36.2544 9.02633H5.8838V8.43955C5.8838 7.41045 6.71902 6.57324 7.74563 6.57324H40.4194C41.446 6.57324 42.2812 7.41045 42.2812 8.43955V31.3886Z" fill="black"/>
<path d="M14.4064 25.6475H5.66602C5.19147 25.6475 4.80664 26.0322 4.80664 26.5068V33.1018C4.80664 33.5765 5.19147 33.9612 5.66602 33.9612H14.4064C14.8809 33.9612 15.2657 33.5765 15.2657 33.1018V26.5068C15.2657 26.0322 14.8809 25.6475 14.4064 25.6475ZM13.547 32.2424H6.52539V27.3661H13.547V32.2424Z" fill="black"/>
<path d="M30.56 25.3317C28.0957 25.3317 26.0908 27.3381 26.0908 29.8044C26.0908 32.2706 28.0957 34.2771 30.56 34.2771C33.0243 34.2771 35.0292 32.2706 35.0292 29.8044C35.0291 27.338 33.0243 25.3317 30.56 25.3317ZM30.56 32.5583C29.0435 32.5583 27.8096 31.3229 27.8096 29.8044C27.8096 28.2859 29.0434 27.0504 30.56 27.0504C32.0766 27.0504 33.3104 28.2859 33.3104 29.8044C33.3103 31.3229 32.0765 32.5583 30.56 32.5583Z" fill="black"/>
</g>
<defs>
<clipPath id="clip0">
<rect width="44" height="44" fill="white"/>
</clipPath>
</defs>
</svg>
