<svg width="80" height="80" viewBox="0 0 80 80" fill="none" xmlns="http://www.w3.org/2000/svg">
<path d="M64.3773 24.9321C65.1138 24.4512 65.4833 24.2096 66.4762 24.2096C67.4691 24.2096 67.839 24.451 68.5757 24.9321C69.5357 25.5588 70.8502 26.4172 73.2382 26.4172C75.626 26.4172 76.9405 25.5588 77.9005 24.9321C78.6372 24.451 79.0069 24.2096 80 24.2096V19.5221C77.6122 19.5221 76.2977 20.3806 75.3377 21.0073C74.601 21.4884 74.2313 21.7298 73.2382 21.7298C72.245 21.7298 71.8752 21.4884 71.1385 21.0073C70.1785 20.3806 68.864 19.5221 66.4762 19.5221C64.0885 19.5221 62.774 20.3806 61.8141 21.0073C61.0776 21.4882 60.708 21.7298 59.7152 21.7298C58.7224 21.7298 58.3527 21.4884 57.616 21.0073C57.022 20.6193 56.2915 20.1432 55.2554 19.8362C49.5064 13.0214 40.9087 8.6842 31.3157 8.6842C14.0482 8.68436 0 22.7324 0 40C0 57.2676 14.0482 71.3156 31.3157 71.3156C41.2292 71.3156 50.0804 66.6841 55.8224 59.4726C56.712 59.9844 57.9046 60.4779 59.7151 60.4779C62.1027 60.4779 63.4173 59.6194 64.3771 58.9927C65.1137 58.5118 65.4832 58.2702 66.476 58.2702C67.469 58.2702 67.8388 58.5116 68.5755 58.9927C69.5355 59.6194 70.85 60.4779 73.238 60.4779C75.6258 60.4779 76.9403 59.6194 77.9003 58.9927C78.637 58.5116 79.0067 58.2702 79.9998 58.2702V53.5827C77.612 53.5827 76.2975 54.4412 75.3375 55.0679C74.6008 55.549 74.2311 55.7904 73.238 55.7904C72.2449 55.7904 71.875 55.549 71.1383 55.0679C70.1783 54.4412 68.8638 53.5827 66.476 53.5827C64.0883 53.5827 62.7738 54.4412 61.814 55.0679C61.0774 55.5488 60.7079 55.7904 59.7151 55.7904C59.1695 55.7904 58.8121 55.717 58.4785 55.5715C59.6648 53.5102 60.621 51.3009 61.3169 48.9803C62.7382 48.7093 63.6574 48.1092 64.3769 47.6392C65.1135 47.1582 65.483 46.9167 66.4758 46.9167C67.4688 46.9167 67.8386 47.1581 68.5754 47.6392C69.5354 48.2659 70.8499 49.1243 73.2378 49.1243C75.6256 49.1243 76.9402 48.2659 77.9002 47.6392C78.6369 47.1581 79.0066 46.9167 79.9997 46.9167V42.2292C77.6119 42.2292 76.2974 43.0876 75.3374 43.7144C74.6006 44.1954 74.231 44.4369 73.2378 44.4369C72.2447 44.4369 71.8749 44.1954 71.1382 43.7144C70.1782 43.0876 68.8636 42.2292 66.4758 42.2292C64.5779 42.2292 63.3591 42.7717 62.4565 43.309C62.5712 42.2214 62.6313 41.1177 62.6313 40C62.6313 39.0864 62.5896 38.1825 62.5126 37.2885C63.293 36.9917 63.8829 36.6083 64.3771 36.2855C65.1137 35.8045 65.4832 35.563 66.476 35.563C67.469 35.563 67.8388 35.8044 68.5755 36.2855C69.5355 36.9122 70.85 37.7706 73.238 37.7706C75.6258 37.7706 76.9403 36.9122 77.9003 36.2855C78.637 35.8044 79.0067 35.563 79.9998 35.563V30.8755C77.612 30.8755 76.2975 31.7339 75.3375 32.3607C74.6008 32.8417 74.2311 33.0832 73.238 33.0832C72.2449 33.0832 71.875 32.8417 71.1383 32.3607C70.1783 31.7339 68.8638 30.8755 66.476 30.8755C64.0883 30.8755 62.7738 31.7339 61.814 32.3607C61.7765 32.3852 61.7405 32.4086 61.7048 32.4319C61.1823 30.3347 60.4498 28.3201 59.5276 26.4129C59.5904 26.4141 59.6509 26.4171 59.7152 26.4171C62.1029 26.4174 63.4174 25.5588 64.3773 24.9321ZM50.8553 24.9323C51.5376 24.4865 51.906 24.2469 52.746 24.2141C54.4223 26.4838 55.7465 29.0279 56.639 31.7657C55.7728 31.2974 54.6276 30.8757 52.954 30.8757C52.9503 30.8757 52.9467 30.876 52.9429 30.876C52.1328 28.9627 51.0753 27.1788 49.8117 25.5635C50.2103 25.3529 50.5509 25.1312 50.8553 24.9323ZM31.3157 66.6283C16.6329 66.6282 4.68748 54.6831 4.68748 40C4.68748 25.3169 16.6329 13.3718 31.3157 13.3718C38.2467 13.3718 44.567 16.0346 49.3095 20.3898C48.922 20.5963 48.5898 20.8131 48.2922 21.0074C47.5556 21.4884 47.1861 21.7299 46.1933 21.7299C46.1373 21.7299 46.0839 21.7288 46.0317 21.7274C42.0033 18.4767 36.8833 16.527 31.3157 16.527C18.3726 16.527 7.84247 27.0571 7.84247 40.0002C7.84247 52.9432 18.3726 63.4733 31.3157 63.4733C35.7836 63.4733 39.9637 62.218 43.5228 60.0422C44.2348 60.2972 45.1008 60.4779 46.1933 60.4779C47.254 60.4779 48.1022 60.308 48.8025 60.0647C44.1209 64.15 38.0025 66.6283 31.3157 66.6283ZM48.292 43.7147C47.5554 44.1956 47.1859 44.4372 46.1931 44.4372C45.2003 44.4372 44.8308 44.1958 44.0942 43.7147C43.1344 43.0878 41.82 42.2295 39.4323 42.2295V46.917C40.425 46.917 40.7947 47.1584 41.5311 47.6395C42.4909 48.2662 43.8053 49.1246 46.1931 49.1246C46.7989 49.1246 47.335 49.069 47.8142 48.9764C46.6486 51.1103 45.0811 52.9942 43.2141 54.5262C42.3369 54.0371 41.1694 53.5827 39.4327 53.5827V56.9399C36.9744 58.1226 34.2211 58.7858 31.3157 58.7858C20.9573 58.7858 12.53 50.3585 12.53 40.0002C12.53 29.6418 20.9573 21.2145 31.3157 21.2145C34.2211 21.2145 36.9744 21.8777 39.4327 23.0604V24.2099C40.4253 24.2099 40.795 24.4513 41.5314 24.9324C42.1394 25.3294 42.8908 25.8188 43.9661 26.1246C45.8433 27.8376 47.3731 29.925 48.4354 32.2678C48.387 32.2993 48.3389 32.3307 48.2922 32.3611C47.5556 32.8421 47.1861 33.0836 46.1933 33.0836C45.2004 33.0836 44.8309 32.8422 44.0944 32.3611C43.1345 31.7343 41.8201 30.876 39.4325 30.876V35.5635C40.4252 35.5635 40.7948 35.8049 41.5312 36.286C42.4911 36.9127 43.8055 37.7711 46.1933 37.7711C47.8442 37.7711 48.9817 37.3606 49.844 36.9002C50.0123 37.9091 50.1012 38.9444 50.1012 40.0003C50.1012 40.9583 50.0287 41.8997 49.8897 42.8194C49.2393 43.0976 48.7282 43.4297 48.292 43.7147ZM54.1628 53.6631C53.7928 53.6121 53.3918 53.5827 52.954 53.5827C51.752 53.5827 50.8223 53.8004 50.0726 54.0965C51.6704 51.9757 52.9179 49.5771 53.7271 46.9865C54.211 47.0897 54.5448 47.3075 55.0531 47.6392C55.4679 47.9101 55.9495 48.224 56.5548 48.4934C55.9412 50.3121 55.1353 52.0431 54.1628 53.6631ZM57.6781 43.755C57.6574 43.7415 57.6374 43.7286 57.6162 43.7147C56.9159 43.2573 56.0246 42.6781 54.6676 42.3976C54.7479 41.6092 54.7892 40.8095 54.7892 40.0003C54.7892 38.6019 54.6657 37.2317 54.4301 35.9C54.622 36.0045 54.8192 36.133 55.0535 36.286C55.7242 36.7239 56.5696 37.2741 57.832 37.5664C57.9046 38.3681 57.944 39.1795 57.944 40.0002C57.944 41.2745 57.852 42.5276 57.6781 43.755Z" fill="url(#paint0_linear)"/>
<defs>
<linearGradient id="paint0_linear" x1="0" y1="8.6842" x2="60.8011" y2="86.3463" gradientUnits="userSpaceOnUse">
<stop stop-color="#005DA0"/>
<stop offset="1" stop-color="#001F8B"/>
</linearGradient>
</defs>
</svg>
