<svg width="80" height="80" viewBox="0 0 80 80" fill="none" xmlns="http://www.w3.org/2000/svg">
<path d="M61.0938 25.7812V16.4062C61.0938 7.35962 53.7341 0 44.6875 0H35.3125C26.2659 0 18.9062 7.35962 18.9062 16.4062V25.7812C18.9062 37.4121 28.3691 46.875 40 46.875C51.6309 46.875 61.0938 37.4121 61.0938 25.7812ZM35.3125 4.6875H44.6875C50.3467 4.6875 55.0818 8.72009 56.1707 14.0625H23.8293C24.9182 8.72009 29.6533 4.6875 35.3125 4.6875ZM56.0034 18.75C55.0354 21.4777 52.4304 23.4375 49.375 23.4375H30.625C27.5696 23.4375 24.9646 21.4777 23.9966 18.75H56.0034ZM40 42.1875C30.9534 42.1875 23.5938 34.8279 23.5938 25.7812V25.7751C25.5536 27.2498 27.9889 28.125 30.625 28.125H49.375C52.0111 28.125 54.4464 27.2498 56.4062 25.7751V25.7812C56.4062 34.8279 49.0466 42.1875 40 42.1875Z" fill="url(#paint0_linear)"/>
<path d="M39.999 32.8126C38.121 32.8126 36.3552 32.0814 35.0271 30.7532L31.7129 34.0674C33.926 36.2812 36.8691 37.5001 39.999 37.5001C43.1289 37.5001 46.072 36.2812 48.2852 34.0674L44.9709 30.7532C43.6428 32.0814 41.8771 32.8126 39.999 32.8126Z" fill="url(#paint1_linear)"/>
<path d="M58.75 46.875H21.25C14.7882 46.875 9.53125 52.132 9.53125 58.5938V80H70.4688V58.5938C70.4688 52.132 65.2118 46.875 58.75 46.875ZM37.6562 60.9375H42.3438V65.625H37.6562V60.9375ZM47.0312 70.3125V60.9375H56.4062V75.3125H23.5938V60.9375H32.9688V70.3125H47.0312ZM65.7812 75.3125H61.0938V56.25H18.9062V75.3125H14.2188V58.5938C14.2188 54.7168 17.373 51.5625 21.25 51.5625H58.75C62.627 51.5625 65.7812 54.7168 65.7812 58.5938V75.3125Z" fill="url(#paint2_linear)"/>
<defs>
<linearGradient id="paint0_linear" x1="18.9063" y1="0" x2="65.5223" y2="41.9544" gradientUnits="userSpaceOnUse">
<stop stop-color="#005DA0"/>
<stop offset="1" stop-color="#001F8B"/>
</linearGradient>
<linearGradient id="paint1_linear" x1="31.7129" y1="30.7532" x2="36.4253" y2="42.3284" gradientUnits="userSpaceOnUse">
<stop stop-color="#005DA0"/>
<stop offset="1" stop-color="#001F8B"/>
</linearGradient>
<linearGradient id="paint2_linear" x1="9.53125" y1="46.875" x2="37.3299" y2="98.014" gradientUnits="userSpaceOnUse">
<stop stop-color="#005DA0"/>
<stop offset="1" stop-color="#001F8B"/>
</linearGradient>
</defs>
</svg>
