<svg width="80" height="80" viewBox="0 0 80 80" fill="none" xmlns="http://www.w3.org/2000/svg">
<path d="M77.636 75.2832H57.5293V44.1989H62.5723V51.3176C62.5723 51.9155 62.8011 52.4908 63.2116 52.9254L69.5365 59.6224C69.9778 60.0898 70.5921 60.3552 71.235 60.3563H71.2389C71.8802 60.3563 72.4937 60.0931 72.9358 59.6282L79.3039 52.9312C79.7178 52.4958 79.9487 51.9182 79.9487 51.3176V9.71342C79.9487 8.42019 78.9002 7.37175 77.607 7.37175H64.914C63.6208 7.37175 62.5723 8.42019 62.5723 9.71342V16.8321H57.5293V2.34167C57.5293 1.04845 56.4809 0 55.1876 0H2.36121C1.06798 0 0.0195312 1.04845 0.0195312 2.34167V77.6249C0.0195312 78.9182 1.06798 79.9666 2.36121 79.9666H11.3064C11.4299 79.9867 11.5557 79.9998 11.6848 79.9998C11.8139 79.9998 11.9397 79.9866 12.0632 79.9666H28.705C28.7283 79.9672 28.7511 79.97 28.7745 79.97C28.7979 79.97 28.8207 79.9672 28.844 79.9666H77.636C78.9293 79.9666 79.9777 78.9182 79.9777 77.6249C79.9777 76.3317 78.9293 75.2832 77.636 75.2832ZM67.2557 12.0551H75.2653V50.382L71.2447 54.6103L67.2557 50.3867V12.0551ZM62.5723 21.5155V39.5156H57.5293V21.5155H62.5723ZM4.70288 4.68335H52.8461V75.2832H48.2059V55.9199C48.2059 54.6267 47.1574 53.5783 45.8642 53.5783H28.8318C28.8126 53.5778 28.7939 53.5753 28.7745 53.5753C28.7551 53.5753 28.7364 53.5778 28.7172 53.5783H11.6848C10.3916 53.5783 9.34314 54.6267 9.34314 55.9199V75.2832H4.70288V4.68335ZM31.1162 58.2616H43.5225V75.2832H31.1162V58.2616ZM26.4328 75.2832H14.0265V58.2616H26.4328V75.2832Z" fill="url(#paint0_linear)"/>
<path d="M13.2597 25.4767H23.8525C25.1457 25.4767 26.1942 24.4283 26.1942 23.1351V12.5425C26.1942 11.2492 25.1457 10.2008 23.8525 10.2008H13.2597C11.9664 10.2008 10.918 11.2492 10.918 12.5425V23.1351C10.918 24.4283 11.9664 25.4767 13.2597 25.4767ZM15.6013 14.8841H21.5108V20.7934H15.6013V14.8841Z" fill="url(#paint1_linear)"/>
<path d="M33.6991 25.4767H44.2919C45.5852 25.4767 46.6336 24.4283 46.6336 23.1351V12.5425C46.6336 11.2492 45.5852 10.2008 44.2919 10.2008H33.6991C32.4059 10.2008 31.3574 11.2492 31.3574 12.5425V23.1351C31.3574 24.4283 32.4059 25.4767 33.6991 25.4767ZM36.0408 14.8841H41.9503V20.7934H36.0408V14.8841Z" fill="url(#paint2_linear)"/>
<path d="M13.2597 45.7577H23.8525C25.1457 45.7577 26.1942 44.7092 26.1942 43.416V32.8233C26.1942 31.53 25.1457 30.4816 23.8525 30.4816H13.2597C11.9664 30.4816 10.918 31.53 10.918 32.8233V43.416C10.918 44.7094 11.9664 45.7577 13.2597 45.7577ZM15.6013 35.165H21.5108V41.0743H15.6013V35.165Z" fill="url(#paint3_linear)"/>
<path d="M33.6991 45.7577H44.2919C45.5852 45.7577 46.6336 44.7092 46.6336 43.416V32.8233C46.6336 31.53 45.5852 30.4816 44.2919 30.4816H33.6991C32.4059 30.4816 31.3574 31.53 31.3574 32.8233V43.416C31.3574 44.7094 32.4059 45.7577 33.6991 45.7577ZM36.0408 35.165H41.9503V41.0743H36.0408V35.165Z" fill="url(#paint4_linear)"/>
<defs>
<linearGradient id="paint0_linear" x1="0.0195313" y1="0" x2="80.0194" y2="79.9582" gradientUnits="userSpaceOnUse">
<stop stop-color="#005DA0"/>
<stop offset="1" stop-color="#001F8B"/>
</linearGradient>
<linearGradient id="paint1_linear" x1="10.918" y1="10.2008" x2="26.1939" y2="25.477" gradientUnits="userSpaceOnUse">
<stop stop-color="#005DA0"/>
<stop offset="1" stop-color="#001F8B"/>
</linearGradient>
<linearGradient id="paint2_linear" x1="31.3574" y1="10.2008" x2="46.6333" y2="25.477" gradientUnits="userSpaceOnUse">
<stop stop-color="#005DA0"/>
<stop offset="1" stop-color="#001F8B"/>
</linearGradient>
<linearGradient id="paint3_linear" x1="10.918" y1="30.4816" x2="26.1941" y2="45.7578" gradientUnits="userSpaceOnUse">
<stop stop-color="#005DA0"/>
<stop offset="1" stop-color="#001F8B"/>
</linearGradient>
<linearGradient id="paint4_linear" x1="31.3574" y1="30.4816" x2="46.6336" y2="45.7578" gradientUnits="userSpaceOnUse">
<stop stop-color="#005DA0"/>
<stop offset="1" stop-color="#001F8B"/>
</linearGradient>
</defs>
</svg>
