<svg width="80" height="80" viewBox="0 0 80 80" fill="none" xmlns="http://www.w3.org/2000/svg">
<path d="M4.75195 0V44.6822V47.0258V70.6192H9.44477V79.9803H23.3523V70.6192H56.654V80H70.5615V70.6191H75.249V47.0256V44.682V0H4.75195ZM9.43898 38.1744H12.4287L11.477 42.3386H9.43898V38.1744ZM9.43898 47.0256H19.838C20.2979 48.0014 20.2543 49.1194 19.7054 50.0664C19.1105 51.093 18.0473 51.7059 16.8605 51.7059H9.43898V47.0256ZM70.5613 51.7061H63.2354C62.049 51.7061 60.9854 51.0931 60.3905 50.0666C59.8416 49.1194 59.798 48.0014 60.2579 47.0258H70.5613V51.7061ZM16.2849 42.3386L20.246 25.008H59.6424L63.6995 42.3386H16.2849ZM18.6649 75.293H14.1318V70.6189H18.6651V75.293H18.6649ZM65.874 75.3128H61.3409V70.6189H65.8741V75.3128H65.874ZM70.5615 65.9319H9.43898V56.3931H16.8605C19.7385 56.3931 22.3182 54.9064 23.7609 52.4162C24.7312 50.7416 25.049 48.8467 24.7195 47.0256H55.3762C55.0468 48.8467 55.3646 50.7414 56.3348 52.4161C57.7774 54.9064 60.3571 56.3931 63.2351 56.3931H70.5612V65.9319H70.5615ZM70.5615 42.3386H68.5134L67.5385 38.1744H70.5615V42.3386ZM70.5615 33.4872H66.4412L63.3588 20.3209H16.5095L13.5001 33.4872H9.43898V4.68719H70.5615V33.4872Z" fill="url(#paint0_linear)"/>
<path d="M48.4882 55.5643H31.4365V60.2515H48.4882V55.5643Z" fill="url(#paint1_linear)"/>
<defs>
<linearGradient id="paint0_linear" x1="4.75195" y1="0" x2="84.1165" y2="69.9371" gradientUnits="userSpaceOnUse">
<stop stop-color="#005DA0"/>
<stop offset="1" stop-color="#001F8B"/>
</linearGradient>
<linearGradient id="paint1_linear" x1="31.4365" y1="55.5643" x2="33.8323" y2="64.2801" gradientUnits="userSpaceOnUse">
<stop stop-color="#005DA0"/>
<stop offset="1" stop-color="#001F8B"/>
</linearGradient>
</defs>
</svg>
