<svg width="100" height="100" viewBox="0 0 100 100" fill="none" xmlns="http://www.w3.org/2000/svg">
<path d="M23.4375 50C23.4375 45.0455 24.8025 40.4043 27.174 36.4303V19.5732H10.317C3.62656 28.2623 0 38.852 0 50C0 61.148 3.62656 71.7377 10.317 80.4268H27.174V63.5697C24.8025 59.5957 23.4375 54.9545 23.4375 50Z" fill="#FBBD00"/>
<path d="M50 76.5623L38.2812 88.2811L50 99.9998C61.1482 99.9998 71.7377 96.3732 80.4268 89.6828V72.8438H63.5877C59.5789 75.2238 54.9182 76.5623 50 76.5623Z" fill="#0F9D58"/>
<path d="M27.174 63.5698L10.317 80.4269C11.6416 82.1472 13.0839 83.7946 14.6447 85.3556C24.0884 94.7991 36.6445 100 50 100V76.5626C40.3078 76.5626 31.813 71.3438 27.174 63.5698Z" fill="#31AA52"/>
<path d="M100 49.9997C100 46.9577 99.7246 43.9101 99.1813 40.9417L98.7416 38.5396H50V61.977H73.7211C71.4176 66.5593 67.8758 70.2978 63.5875 72.8438L80.4266 89.6829C82.1469 88.3583 83.7943 86.9159 85.3553 85.3552C94.799 75.9112 100 63.3552 100 49.9997Z" fill="#3C79E6"/>
<path d="M68.7826 31.2174L70.8541 33.2889L87.427 16.7162L85.3555 14.6447C75.9117 5.20098 63.3557 0 50 0L38.2812 11.7188L50 23.4375C57.0949 23.4375 63.7654 26.2004 68.7826 31.2174Z" fill="#CF2D48"/>
<path d="M50 23.4375V0C36.6446 0 24.0885 5.20098 14.6446 14.6445C13.0838 16.2053 11.6414 17.8527 10.3168 19.5732L27.1739 36.4303C31.8131 28.6562 40.3078 23.4375 50 23.4375Z" fill="#EB4132"/>
</svg>
