<svg width="100" height="100" viewBox="0 0 100 100" fill="none" xmlns="http://www.w3.org/2000/svg">
<g clip-path="url(#clip0)">
<path d="M6.25002 6.80391C-1.60832 14.9664 1.64509e-05 23.6372 1.64509e-05 49.9789C1.64509e-05 71.8539 -3.81665 93.7831 16.1584 98.9456C22.3959 100.55 77.6625 100.55 83.8917 98.9373C92.2084 96.7914 98.975 90.0456 99.9 78.2831C100.029 76.6414 100.029 23.3456 99.8959 21.6706C98.9125 9.14141 91.2 1.92058 81.0375 0.458079C78.7084 0.120579 78.2417 0.0205791 66.2917 -0.000254273C23.9042 0.0205791 14.6125 -1.86692 6.25002 6.80391Z" fill="url(#paint0_linear)"/>
<path d="M49.9917 13.0791C34.8625 13.0791 20.4959 11.7333 15.0084 25.8166C12.7417 31.6333 13.0709 39.1874 13.0709 50.0041C13.0709 59.4958 12.7667 68.4166 15.0084 74.1874C20.4834 88.2791 34.9667 86.9291 49.9834 86.9291C64.4709 86.9291 79.4084 88.4374 84.9626 74.1874C87.2334 68.3124 86.9001 60.8708 86.9001 50.0041C86.9001 35.5791 87.6959 26.2666 80.7001 19.2749C73.6167 12.1916 64.0375 13.0791 49.975 13.0791H49.9917ZM46.6834 19.7333C78.2417 19.6833 82.2584 16.1749 80.0417 64.9124C79.2542 82.1499 66.1292 80.2583 49.9959 80.2583C20.5792 80.2583 19.7334 79.4166 19.7334 49.9874C19.7334 20.2166 22.0667 19.7499 46.6834 19.7249V19.7333ZM69.7 25.8624C67.2542 25.8624 65.2709 27.8458 65.2709 30.2916C65.2709 32.7374 67.2542 34.7208 69.7 34.7208C72.1459 34.7208 74.1292 32.7374 74.1292 30.2916C74.1292 27.8458 72.1459 25.8624 69.7 25.8624ZM49.9917 31.0416C39.5209 31.0416 31.0334 39.5333 31.0334 50.0041C31.0334 60.4749 39.5209 68.9624 49.9917 68.9624C60.4625 68.9624 68.9459 60.4749 68.9459 50.0041C68.9459 39.5333 60.4625 31.0416 49.9917 31.0416ZM49.9917 37.6958C66.2625 37.6958 66.2834 62.3124 49.9917 62.3124C33.725 62.3124 33.7 37.6958 49.9917 37.6958Z" fill="white"/>
</g>
<defs>
<linearGradient id="paint0_linear" x1="6.44177" y1="93.6126" x2="99.3812" y2="13.1746" gradientUnits="userSpaceOnUse">
<stop stop-color="#FFDD55"/>
<stop offset="0.5" stop-color="#FF543E"/>
<stop offset="1" stop-color="#C837AB"/>
</linearGradient>
<clipPath id="clip0">
<rect width="100" height="100" fill="white"/>
</clipPath>
</defs>
</svg>
