<svg width="211" height="54" viewBox="0 0 211 54" fill="none" xmlns="http://www.w3.org/2000/svg">
<g clip-path="url(#clip0)">
<path fill-rule="evenodd" clip-rule="evenodd" d="M52.6076 9.78746e-06V11.605H44.6764C42.0118 11.605 39.6597 10.2579 38.2697 8.2092C38.0716 7.9161 37.8736 7.65887 37.6357 7.35795C36.9593 6.43244 36.2084 5.50951 35.1932 4.92204C34.0555 4.26693 32.7359 3.89033 31.3272 3.89033H3.54901e-05V-6.10352e-05L52.6076 9.78746e-06Z" fill="url(#paint0_linear)"/>
<path fill-rule="evenodd" clip-rule="evenodd" d="M52.6076 19.3184V26.9999H35.1253C34.9936 27.0066 34.8607 27.0092 34.7279 27.0092C34.5938 27.0092 34.4595 27.0066 34.3306 26.9999C32.2562 26.8952 30.397 25.9749 29.0706 24.5548C28.7371 24.1954 28.434 23.8042 28.1722 23.3879C28.0725 23.2313 27.9809 23.071 27.8945 22.9078C27.2247 21.8405 26.2999 20.9494 25.2048 20.317C24.0685 19.6618 22.7475 19.2866 21.3403 19.2866H3.54901e-05V11.6049H25.2739C25.4055 11.5971 25.5385 11.5944 25.6713 11.5944C25.8042 11.5944 25.9383 11.5972 26.0686 11.6049C28.143 11.7098 30.0009 12.6301 31.3272 14.0502C31.662 14.4097 31.9638 14.8006 32.2255 15.2158C32.3252 15.3721 32.4182 15.534 32.5047 15.6972C33.173 16.7645 34.0993 17.6556 35.1931 18.288C36.3307 18.9432 37.6517 19.3184 39.0577 19.3184H52.6076Z" fill="url(#paint1_linear)"/>
<path fill-rule="evenodd" clip-rule="evenodd" d="M52.6076 34.7133V42.5102H25.8533C25.7217 42.5167 25.5889 42.5193 25.456 42.5193C25.3217 42.5193 25.1888 42.5167 25.0586 42.5102C22.9841 42.4065 21.1249 41.4996 19.7987 40.1008C19.4651 39.7466 19.1621 39.362 18.9004 38.9511C18.8007 38.7973 18.7089 38.6396 18.6224 38.479C17.9528 37.4275 17.0279 36.5497 15.9327 35.9265C14.7965 35.2807 13.4756 34.9107 12.0682 34.9107H7.09802e-05V26.9998H15.7214C18.3873 26.9998 20.7383 28.3457 22.1284 30.3958C22.3277 30.6887 22.5244 30.9461 22.7622 31.247C23.44 32.1713 24.1909 33.0955 25.2049 33.6829C26.3424 34.3379 27.6634 34.7132 29.0706 34.7132L52.6076 34.7133Z" fill="url(#paint2_linear)"/>
<path fill-rule="evenodd" clip-rule="evenodd" d="M19.7987 50.1094H52.6076V54H0V42.5102H6.4494C9.11527 42.5102 11.4661 43.8361 12.8562 45.8542C13.0555 46.1434 13.2522 46.3966 13.4901 46.6936C14.1677 47.6046 14.9186 48.5141 15.9326 49.0936C17.0715 49.738 18.3912 50.1094 19.7987 50.1094Z" fill="url(#paint3_linear)"/>
<path d="M89.3322 18.0264H81.9993V36.7146H79.0049V18.0264H71.7024V15.3739H89.3322V18.0264Z" fill="black"/>
<path d="M103.311 33.6203C104.136 33.1429 104.788 32.4723 105.267 31.6082C105.745 30.7445 105.985 29.7537 105.985 28.6355C105.985 27.5181 105.745 26.5273 105.267 25.6633C104.788 24.7995 104.136 24.1342 103.311 23.6664C102.486 23.1991 101.554 22.9651 100.516 22.9651C99.4968 22.9651 98.5753 23.2043 97.7506 23.6815C96.9256 24.1593 96.2733 24.8248 95.795 25.6783C95.3162 26.532 95.077 27.5181 95.077 28.6355C95.077 29.7537 95.3108 30.7445 95.7797 31.6082C96.248 32.4723 96.8997 33.1429 97.7351 33.6203C98.5701 34.0979 99.4968 34.3365 100.516 34.3365C101.554 34.3365 102.486 34.0979 103.311 33.6203ZM104.977 21.4407C106.219 22.132 107.192 23.0976 107.895 24.337C108.597 25.5772 108.949 27.0098 108.949 28.6355C108.949 30.2618 108.597 31.6995 107.895 32.9494C107.192 34.1996 106.219 35.1702 104.977 35.8609C103.734 36.5522 102.328 36.8975 100.76 36.8975C99.5989 36.8975 98.5343 36.674 97.567 36.2268C96.5995 35.7801 95.7797 35.1293 95.1075 34.2756V42.6289H92.1743V20.5567H94.9852V23.1177C95.6369 22.2235 96.4619 21.5474 97.46 21.0903C98.4579 20.6328 99.5578 20.4042 100.76 20.4042C102.328 20.4042 103.734 20.75 104.977 21.4407Z" fill="black"/>
<path d="M113.195 20.5567H116.128V32.3246L126.059 20.5567H128.717V36.7146H125.784V24.9468L115.883 36.7146H113.195V20.5567Z" fill="black"/>
<path d="M148.746 33.1783C149.998 32.4671 150.985 31.486 151.709 30.2362C152.432 28.9863 152.794 27.5891 152.794 26.0442C152.794 24.5 152.432 23.1024 151.709 21.8524C150.985 20.6025 149.998 19.6222 148.746 18.9104C147.493 18.1992 146.081 17.8435 144.513 17.8435C142.945 17.8435 141.524 18.1993 140.251 18.9104C138.978 19.6222 137.98 20.6025 137.257 21.8524C136.533 23.1024 136.172 24.5 136.172 26.0442C136.172 27.5891 136.533 28.9862 137.257 30.2362C137.98 31.486 138.978 32.4671 140.251 33.1783C141.524 33.8898 142.945 34.2452 144.513 34.2452C146.081 34.2452 147.493 33.8898 148.746 33.1783ZM138.678 35.5409C136.946 34.5956 135.586 33.29 134.599 31.6233C133.61 29.9571 133.116 28.0974 133.116 26.0442C133.116 23.9917 133.61 22.132 134.599 20.4652C135.586 18.799 136.946 17.4929 138.678 16.5478C140.408 15.6027 142.353 15.1301 144.513 15.1301C146.653 15.1301 148.587 15.6027 150.319 16.5478C152.049 17.4929 153.405 18.7938 154.382 20.4499C155.36 22.1068 155.849 23.9712 155.849 26.0442C155.849 28.1174 155.36 29.9822 154.382 31.6386C153.405 33.2954 152.049 34.5956 150.319 35.5409C148.587 36.4859 146.653 36.9584 144.513 36.9584C142.353 36.9584 140.408 36.4859 138.678 35.5409Z" fill="black"/>
<path d="M166.604 29.8856H163.244V36.7146H160.31V20.5567H163.244V27.3857H166.665L171.92 20.5567H175.066L168.926 28.3308L175.494 36.7146H172.041L166.604 29.8856Z" fill="black"/>
<path d="M180.675 35.8304C179.381 35.1193 178.367 34.1385 177.635 32.8884C176.901 31.6386 176.534 30.221 176.534 28.6355C176.534 27.0504 176.901 25.6327 177.635 24.3828C178.367 23.133 179.381 22.1573 180.675 21.4562C181.968 20.755 183.439 20.4043 185.09 20.4043C186.556 20.4043 187.864 20.6992 189.015 21.2883C190.167 21.878 191.057 22.7317 191.689 23.8492L189.459 25.2822C188.949 24.51 188.318 23.9308 187.565 23.5444C186.812 23.1585 185.977 22.9651 185.058 22.9651C183.999 22.9651 183.048 23.199 182.202 23.6664C181.357 24.1342 180.694 24.7995 180.216 25.6633C179.736 26.5274 179.498 27.5182 179.498 28.6355C179.498 29.7742 179.736 30.775 180.216 31.6386C180.694 32.5027 181.357 33.1682 182.202 33.6354C183.048 34.1035 183.999 34.3365 185.058 34.3365C185.977 34.3365 186.812 34.1437 187.565 33.7574C188.318 33.3714 188.949 32.7923 189.459 32.0197L191.689 33.4221C191.057 34.5401 190.167 35.399 189.015 35.9982C187.864 36.598 186.556 36.8975 185.09 36.8975C183.439 36.8975 181.968 36.5421 180.675 35.8304Z" fill="black"/>
<path d="M195.479 20.5567H198.411V32.3246L208.341 20.5567H211V36.7146H208.066V24.9468L198.166 36.7146H195.479V20.5567Z" fill="black"/>
</g>
<defs>
<linearGradient id="paint0_linear" x1="13.2672" y1="64.3912" x2="43.422" y2="26.9007" gradientUnits="userSpaceOnUse">
<stop stop-color="#5072B6"/>
<stop offset="1" stop-color="#78C5EF"/>
</linearGradient>
<linearGradient id="paint1_linear" x1="13.2672" y1="64.3912" x2="43.422" y2="26.9007" gradientUnits="userSpaceOnUse">
<stop stop-color="#5072B6"/>
<stop offset="1" stop-color="#78C5EF"/>
</linearGradient>
<linearGradient id="paint2_linear" x1="13.2672" y1="64.3912" x2="43.422" y2="26.9007" gradientUnits="userSpaceOnUse">
<stop stop-color="#5072B6"/>
<stop offset="1" stop-color="#78C5EF"/>
</linearGradient>
<linearGradient id="paint3_linear" x1="13.2672" y1="64.3912" x2="43.422" y2="26.9007" gradientUnits="userSpaceOnUse">
<stop stop-color="#5072B6"/>
<stop offset="1" stop-color="#78C5EF"/>
</linearGradient>
<clipPath id="clip0">
<rect width="211" height="54" fill="white"/>
</clipPath>
</defs>
</svg>
