<svg width="212" height="54" viewBox="0 0 212 54" fill="none" xmlns="http://www.w3.org/2000/svg">
<g clip-path="url(#clip0)">
<path fill-rule="evenodd" clip-rule="evenodd" d="M52.6302 7.08226e-05V11.605H44.6957C42.0299 11.605 39.6768 10.258 38.2862 8.20926C38.088 7.91616 37.89 7.65894 37.6519 7.35801C36.9752 6.4325 36.224 5.50957 35.2084 4.9221C34.0702 4.26699 32.75 3.89039 31.3407 3.89039H3.55054e-05V0L52.6302 7.08226e-05Z" fill="url(#paint0_linear)"/>
<path fill-rule="evenodd" clip-rule="evenodd" d="M52.6302 19.3185V26.9999H35.1404C35.0087 27.0067 34.8758 27.0093 34.7429 27.0093C34.6087 27.0093 34.4744 27.0067 34.3454 26.9999C32.2701 26.8953 30.4101 25.975 29.0831 24.5548C28.7495 24.1954 28.4463 23.8043 28.1844 23.3879C28.0846 23.2314 27.993 23.071 27.9065 22.9079C27.2364 21.8406 26.3113 20.9494 25.2157 20.317C24.0789 19.6619 22.7573 19.2867 21.3495 19.2867H3.55054e-05V11.605H25.2848C25.4165 11.5972 25.5495 11.5944 25.6824 11.5944C25.8153 11.5944 25.9495 11.5972 26.0798 11.605C28.1551 11.7098 30.0139 12.6302 31.3407 14.0503C31.6756 14.4097 31.9775 14.8007 32.2394 15.2158C32.3391 15.3722 32.4322 15.5341 32.5187 15.6972C33.1873 16.7645 34.114 17.6557 35.2083 18.2881C36.3463 18.9432 37.6679 19.3185 39.0745 19.3185H52.6302Z" fill="url(#paint1_linear)"/>
<path fill-rule="evenodd" clip-rule="evenodd" d="M52.6302 34.7133V42.5102H25.8644C25.7328 42.5168 25.5999 42.5194 25.4669 42.5194C25.3326 42.5194 25.1997 42.5168 25.0694 42.5102C22.994 42.4066 21.134 41.4996 19.8072 40.1009C19.4735 39.7467 19.1704 39.3621 18.9085 38.9511C18.8088 38.7974 18.7169 38.6396 18.6305 38.4791C17.9605 37.4276 17.0352 36.5498 15.9396 35.9266C14.8028 35.2808 13.4814 34.9108 12.0734 34.9108H7.10107e-05V26.9999H15.7282C18.3952 26.9999 20.7472 28.3457 22.1379 30.3958C22.3373 30.6887 22.5341 30.9462 22.772 31.2471C23.4501 32.1713 24.2013 33.0955 25.2157 33.683C26.3537 34.338 27.6753 34.7133 29.0832 34.7133L52.6302 34.7133Z" fill="url(#paint2_linear)"/>
<path fill-rule="evenodd" clip-rule="evenodd" d="M19.8072 50.1094H52.6302V54H0V42.5103H6.45218C9.1192 42.5103 11.4711 43.8362 12.8617 45.8543C13.0611 46.1434 13.2579 46.3966 13.4959 46.6937C14.1739 47.6046 14.925 48.5142 15.9395 49.0937C17.0789 49.7381 18.3991 50.1094 19.8072 50.1094Z" fill="url(#paint3_linear)"/>
<path d="M89.2677 18.0262H81.9316V36.7145H78.9359V18.0262H71.6302V15.3737H89.2677V18.0262Z" fill="black"/>
<path d="M103.253 33.6201C104.078 33.1427 104.73 32.4721 105.209 31.608C105.688 30.7443 105.927 29.7535 105.927 28.6354C105.927 27.518 105.688 26.5272 105.209 25.6631C104.73 24.7994 104.078 24.134 103.253 23.6663C102.427 23.1989 101.495 22.965 100.456 22.965C99.4366 22.965 98.5147 23.2041 97.6896 23.6814C96.8643 24.1591 96.2118 24.8246 95.7333 25.6782C95.2542 26.5319 95.0149 27.518 95.0149 28.6354C95.0149 29.7535 95.2488 30.7443 95.7179 31.608C96.1864 32.4721 96.8384 33.1427 97.6741 33.6201C98.5095 34.0977 99.4366 34.3364 100.456 34.3364C101.495 34.3364 102.427 34.0977 103.253 33.6201ZM104.919 21.4406C106.161 22.1318 107.135 23.0974 107.838 24.3369C108.541 25.577 108.892 27.0096 108.892 28.6354C108.892 30.2617 108.541 31.6993 107.838 32.9492C107.135 34.1994 106.161 35.1701 104.919 35.8608C103.675 36.552 102.269 36.8974 100.7 36.8974C99.5388 36.8974 98.4737 36.6739 97.506 36.2266C96.538 35.7799 95.7179 35.1291 95.0454 34.2754V42.6287H92.1109V20.5565H94.923V23.1175C95.575 22.2234 96.4004 21.5473 97.399 21.0901C98.3973 20.6327 99.4976 20.4041 100.7 20.4041C102.269 20.4041 103.675 20.7498 104.919 21.4406Z" fill="black"/>
<path d="M113.141 20.5565H116.075V32.3244L126.01 20.5565H128.67V36.7145H125.735V24.9467L115.83 36.7145H113.141V20.5565Z" fill="black"/>
<path d="M148.707 33.1781C149.959 32.4669 150.947 31.4858 151.671 30.236C152.395 28.9861 152.756 27.5889 152.756 26.044C152.756 24.4998 152.395 23.1022 151.671 21.8522C150.947 20.6023 149.959 19.622 148.707 18.9103C147.453 18.1991 146.041 17.8433 144.472 17.8433C142.903 17.8433 141.482 18.1991 140.209 18.9103C138.935 19.622 137.936 20.6023 137.213 21.8522C136.488 23.1023 136.128 24.4998 136.128 26.044C136.128 27.5889 136.488 28.9861 137.213 30.236C137.936 31.4858 138.935 32.4669 140.209 33.1781C141.482 33.8896 142.903 34.245 144.472 34.245C146.041 34.245 147.453 33.8896 148.707 33.1781ZM138.634 35.5407C136.902 34.5955 135.542 33.2899 134.554 31.6232C133.565 29.9569 133.07 28.0973 133.07 26.044C133.07 23.9915 133.565 22.1318 134.554 20.4651C135.542 18.7988 136.902 17.4927 138.634 16.5476C140.365 15.6025 142.312 15.1299 144.472 15.1299C146.613 15.1299 148.548 15.6025 150.281 16.5476C152.012 17.4927 153.368 18.7936 154.345 20.4498C155.324 22.1066 155.813 23.971 155.813 26.044C155.813 28.1172 155.324 29.9821 154.345 31.6384C153.368 33.2952 152.012 34.5954 150.281 35.5407C148.548 36.4857 146.613 36.9583 144.472 36.9583C142.312 36.9583 140.365 36.4857 138.634 35.5407Z" fill="black"/>
<path d="M166.573 29.8854H163.211V36.7145H160.276V20.5565H163.211V27.3856H166.634L171.891 20.5565H175.038L168.896 28.3306L175.466 36.7145H172.012L166.573 29.8854Z" fill="black"/>
<path d="M180.65 35.8302C179.355 35.1192 178.341 34.1383 177.608 32.8883C176.874 31.6384 176.507 30.2209 176.507 28.6354C176.507 27.0502 176.874 25.6326 177.608 24.3827C178.341 23.1328 179.355 22.1571 180.65 21.456C181.943 20.7549 183.415 20.4041 185.066 20.4041C186.533 20.4041 187.842 20.699 188.994 21.2882C190.146 21.8779 191.037 22.7315 191.668 23.849L189.437 25.282C188.928 24.5099 188.296 23.9306 187.542 23.5442C186.789 23.1583 185.954 22.965 185.035 22.965C183.975 22.965 183.023 23.1989 182.178 23.6663C181.332 24.134 180.669 24.7994 180.191 25.6631C179.71 26.5272 179.472 27.518 179.472 28.6354C179.472 29.774 179.71 30.7748 180.191 31.6384C180.669 32.5025 181.332 33.168 182.178 33.6352C183.023 34.1033 183.975 34.3364 185.035 34.3364C185.954 34.3364 186.789 34.1436 187.542 33.7572C188.296 33.3713 188.928 32.7921 189.437 32.0195L191.668 33.4219C191.037 34.5399 190.146 35.3988 188.994 35.9981C187.842 36.5978 186.533 36.8974 185.066 36.8974C183.415 36.8974 181.943 36.542 180.65 35.8302Z" fill="black"/>
<path d="M195.46 20.5565H198.394V32.3244L208.328 20.5565H210.988V36.7145H208.053V24.9467L198.148 36.7145H195.46V20.5565Z" fill="black"/>
</g>
<defs>
<linearGradient id="paint0_linear" x1="13.2729" y1="64.3912" x2="43.4249" y2="26.8881" gradientUnits="userSpaceOnUse">
<stop stop-color="#5072B6"/>
<stop offset="1" stop-color="#78C5EF"/>
</linearGradient>
<linearGradient id="paint1_linear" x1="13.2729" y1="64.3912" x2="43.4249" y2="26.8881" gradientUnits="userSpaceOnUse">
<stop stop-color="#5072B6"/>
<stop offset="1" stop-color="#78C5EF"/>
</linearGradient>
<linearGradient id="paint2_linear" x1="13.2729" y1="64.3912" x2="43.4249" y2="26.8881" gradientUnits="userSpaceOnUse">
<stop stop-color="#5072B6"/>
<stop offset="1" stop-color="#78C5EF"/>
</linearGradient>
<linearGradient id="paint3_linear" x1="13.2729" y1="64.3912" x2="43.4249" y2="26.8881" gradientUnits="userSpaceOnUse">
<stop stop-color="#5072B6"/>
<stop offset="1" stop-color="#78C5EF"/>
</linearGradient>
<clipPath id="clip0">
<rect width="211.091" height="54" fill="white"/>
</clipPath>
</defs>
</svg>
