<svg width="140" height="140" viewBox="0 0 140 140" fill="none" xmlns="http://www.w3.org/2000/svg">
<path d="M47.7272 82.7271H22.2729C20.3637 82.7271 19.0912 83.9999 19.0912 85.9088C19.0912 87.8176 20.364 89.0905 22.2729 89.0905H47.7274C49.6366 89.0905 50.9092 87.8176 50.9092 85.9088C50.9092 83.9999 49.6363 82.7271 47.7272 82.7271Z" fill="url(#paint0_linear)"/>
<path d="M38.1817 66.8179H12.7271C10.818 66.8179 9.54538 68.0907 9.54538 69.9996C9.54538 71.9085 10.8182 73.1813 12.7271 73.1813H38.1817C40.0908 73.1813 41.3634 71.9085 41.3634 69.9996C41.3634 68.0907 40.0908 66.8179 38.1817 66.8179Z" fill="url(#paint1_linear)"/>
<path d="M28.6363 50.9092H3.18172C1.27285 50.9092 0 52.1818 0 54.0909C0 56 1.27285 57.2726 3.18172 57.2726H28.6363C30.5454 57.2726 31.818 55.9998 31.818 54.0909C31.818 52.182 30.5454 50.9092 28.6363 50.9092Z" fill="url(#paint2_linear)"/>
<path d="M126.636 42.6359C125.682 41.363 123.455 41.045 122.182 41.9996L88.4546 67.7725C84.9546 70.3179 80.1817 70.3179 76.6818 67.7725L42.9546 41.9996C41.6818 41.045 39.4546 41.045 38.5 42.6359C37.5455 43.9087 37.5455 46.1359 39.1363 47.0905L73.1817 72.8633C76.0455 75.0905 79.5455 76.0451 82.7272 76.0451C85.9089 76.0451 89.7272 75.0905 92.2726 72.8633L126 47.0905C127.273 46.1359 127.591 43.9087 126.636 42.6359Z" fill="url(#paint3_linear)"/>
<path d="M130.455 28.6367H28.6362C26.7271 28.6367 25.4545 29.9096 25.4545 31.8184C25.4545 33.7273 26.7271 35.0004 28.6362 35.0004H130.455C132.364 35.0004 133.636 36.2733 133.636 38.1821V101.818C133.636 103.728 132.363 105 130.455 105H28.6362C26.7271 105 25.4545 106.273 25.4545 108.182C25.4545 110.091 26.7274 111.364 28.6362 111.364H130.455C135.864 111.364 140 107.227 140 101.818V38.1821C140 32.7733 135.864 28.6367 130.455 28.6367Z" fill="url(#paint4_linear)"/>
<path d="M126.318 93.2271L107.227 74.1363C105.955 72.8634 104.046 72.8634 102.773 74.1363C101.5 75.4091 101.5 77.318 102.773 78.5908L121.864 97.6817C122.5 98.318 123.455 98.6363 124.091 98.6363C124.727 98.6363 125.682 98.318 126.318 97.6817C127.591 96.4091 127.591 94.5 126.318 93.2271Z" fill="url(#paint5_linear)"/>
<defs>
<linearGradient id="paint0_linear" x1="19.0912" y1="82.7271" x2="21.5386" y2="94.9644" gradientUnits="userSpaceOnUse">
<stop stop-color="#005DA0"/>
<stop offset="1" stop-color="#001F8B"/>
</linearGradient>
<linearGradient id="paint1_linear" x1="9.54538" y1="66.8179" x2="11.9928" y2="79.0553" gradientUnits="userSpaceOnUse">
<stop stop-color="#005DA0"/>
<stop offset="1" stop-color="#001F8B"/>
</linearGradient>
<linearGradient id="paint2_linear" x1="0" y1="50.9092" x2="2.44741" y2="63.1466" gradientUnits="userSpaceOnUse">
<stop stop-color="#005DA0"/>
<stop offset="1" stop-color="#001F8B"/>
</linearGradient>
<linearGradient id="paint3_linear" x1="37.8486" y1="41.3481" x2="61.2663" y2="101.648" gradientUnits="userSpaceOnUse">
<stop stop-color="#005DA0"/>
<stop offset="1" stop-color="#001F8B"/>
</linearGradient>
<linearGradient id="paint4_linear" x1="25.4545" y1="28.6367" x2="103.986" y2="137.373" gradientUnits="userSpaceOnUse">
<stop stop-color="#005DA0"/>
<stop offset="1" stop-color="#001F8B"/>
</linearGradient>
<linearGradient id="paint5_linear" x1="101.818" y1="73.1816" x2="127.273" y2="98.6361" gradientUnits="userSpaceOnUse">
<stop stop-color="#005DA0"/>
<stop offset="1" stop-color="#001F8B"/>
</linearGradient>
</defs>
</svg>
