<svg width="40" height="40" viewBox="0 0 40 40" fill="none" xmlns="http://www.w3.org/2000/svg">
<g clip-path="url(#clip0)">
<path d="M39.9388 32.0913L33.351 10.5712C33.2632 10.2638 33.0436 9.95636 32.7362 9.8246L26.8071 6.5307C26.324 6.26719 25.7531 6.31111 25.3578 6.66246L19.9998 9.56109L14.5099 6.39895C14.1147 6.17935 13.5876 6.17935 13.1924 6.39895L7.26335 9.73676C6.95592 9.91244 6.73633 10.1759 6.64849 10.4834L0.0606991 32.0035C-0.158894 32.7062 0.236374 33.4528 0.939071 33.6285C1.2465 33.7163 1.55393 33.7163 1.81744 33.5846L9.94239 30.2468L19.6045 33.4089C19.868 33.4967 20.1315 33.4967 20.395 33.4089L30.2328 30.4224L38.1821 33.6724C38.8408 33.9359 39.6314 33.6285 39.8949 32.9258C40.0266 32.7062 40.0266 32.3988 39.9388 32.0913ZM18.6822 30.3346L11.3917 27.963L14.8174 9.60501L18.6822 11.8449V30.3346ZM31.2429 28.0069L27.949 10.1759L30.9794 11.8888L36.601 30.2468L31.2429 28.0069Z" fill="url(#paint0_linear)"/>
</g>
<defs>
<linearGradient id="paint0_linear" x1="0" y1="6.23425" x2="25.7165" y2="43.5971" gradientUnits="userSpaceOnUse">
<stop stop-color="#005DA0"/>
<stop offset="1" stop-color="#001F8B"/>
</linearGradient>
<clipPath id="clip0">
<rect width="40" height="40" fill="white"/>
</clipPath>
</defs>
</svg>
