<svg width="44" height="44" viewBox="0 0 44 44" fill="none" xmlns="http://www.w3.org/2000/svg">
<g clip-path="url(#clip0)">
<path d="M43.8811 25.9014C43.7843 25.7361 43.6356 25.6075 43.4581 25.5357L40.3024 24.2439L43.5708 22.3193C43.984 22.0774 44.1229 21.5464 43.8811 21.1332C43.7843 20.968 43.6356 20.8393 43.4581 20.7675L40.3024 19.4757L43.5708 17.5511C43.8563 17.3794 44.018 17.0593 43.9869 16.7276C43.9619 16.4 43.7537 16.1145 43.4494 15.9907L31.0262 10.9017L24.9056 8.3009C24.8062 8.26156 24.7004 8.24108 24.5935 8.24021L14.6237 4.18294C14.3789 4.08129 14.101 4.09733 13.8695 4.22628L0.509925 11.734C0.0823066 11.9493 -0.0897808 12.4706 0.125545 12.8982C0.223726 13.0932 0.392021 13.2441 0.596618 13.3205L3.82163 14.6556L0.509925 16.5021C0.0932517 16.738 -0.0533694 17.267 0.182438 17.6837C0.276176 17.8493 0.421605 17.9793 0.596618 18.054L3.82163 19.3891L0.527263 21.2356C0.0867497 21.4233 -0.118065 21.9327 0.0696276 22.3731C0.167483 22.6027 0.359511 22.7789 0.596618 22.8568L3.82163 24.1832L0.527263 26.0298C0.110591 26.2656 -0.0360306 26.7947 0.199777 27.2113C0.293515 27.3769 0.438944 27.507 0.613957 27.5816L11.8235 32.3411C11.8644 32.3709 11.908 32.3971 11.9535 32.4192L18.0828 35.02L29.353 39.8142C29.6066 39.9218 29.8962 39.9025 30.1332 39.7621L43.5708 31.8556C43.984 31.6138 44.1229 31.0828 43.8811 30.6696C43.7843 30.5043 43.6356 30.3757 43.4581 30.3038L40.3024 29.0121L43.5708 27.0875C43.984 26.8457 44.1228 26.3146 43.8811 25.9014ZM41.1781 21.6952L29.6218 28.5007L19.2878 24.114V21.2271L29.3443 25.5011C29.4513 25.5466 29.5663 25.5702 29.6824 25.5704C29.8381 25.5704 29.9907 25.5285 30.1246 25.4491L38.4212 20.5682L41.1781 21.6952ZM41.2127 16.9184L29.6218 23.7239L20.2328 19.7359L30.8095 12.6704L41.2127 16.9184ZM11.3987 30.2953L2.89401 26.6801L5.81559 25.0416L11.4074 27.417L11.3987 30.2953ZM11.3987 25.5271L2.89401 21.912L5.81559 20.2561L11.4074 22.6315L11.3987 25.5271ZM11.3987 20.7589L2.89401 17.1525L5.81559 15.5139L11.4074 17.8894L11.3987 20.7589ZM2.89401 12.3843L14.3549 5.94293L22.6689 9.35L12.1963 16.3375L2.89401 12.3843ZM17.9354 19.1984C17.6965 19.3599 17.5535 19.6296 17.554 19.918V32.9221L13.1412 31.0495V17.794L24.6282 10.1389L28.9022 11.8728L17.9354 19.1984ZM41.1781 31.2316L29.6218 38.0284L19.2878 33.6417V30.7634L29.3443 34.9941C29.5979 35.1017 29.8876 35.0824 30.1246 34.9421L38.4212 30.0612L41.1781 31.2316ZM29.6218 33.2602L19.2878 28.8735V25.9952L29.353 30.2693C29.6066 30.3769 29.8962 30.3576 30.1332 30.2172L38.4299 25.3364L41.1781 26.4634L29.6218 33.2602Z" fill="black"/>
</g>
<defs>
<clipPath id="clip0">
<rect width="44" height="44" fill="white"/>
</clipPath>
</defs>
</svg>
