<svg width="20" height="20" viewBox="0 0 20 20" fill="none" xmlns="http://www.w3.org/2000/svg">
<path d="M0.949702 18.4917L4.19868 16.5111C4.39446 16.3924 4.61939 16.3278 4.84848 16.3278H18.7504C19.4397 16.3278 20 15.7676 20 15.0782V2.66541C20 1.97604 19.4397 1.4158 18.7504 1.4158H1.24961C0.560241 1.4158 0 1.97604 0 2.66541V17.9585C0 18.4459 0.533166 18.7458 0.949702 18.4917ZM3.4031 5.09384H16.5948C16.9405 5.09384 17.2196 5.37292 17.2196 5.71864C17.2196 6.06437 16.9405 6.34344 16.5948 6.34344H3.4031C3.05737 6.34344 2.7783 6.06437 2.7783 5.71864C2.7783 5.37292 3.05946 5.09384 3.4031 5.09384ZM3.4031 8.0783H16.5948C16.9405 8.0783 17.2196 8.35738 17.2196 8.7031C17.2196 9.04883 16.9405 9.32791 16.5948 9.32791H3.4031C3.05737 9.32791 2.7783 9.04883 2.7783 8.7031C2.7783 8.35738 3.05946 8.0783 3.4031 8.0783ZM3.4031 11.0628H9.99895C10.3447 11.0628 10.6238 11.3419 10.6238 11.6876C10.6238 12.0333 10.3447 12.3124 9.99895 12.3124H3.4031C3.05737 12.3124 2.7783 12.0333 2.7783 11.6876C2.7783 11.3419 3.05946 11.0628 3.4031 11.0628Z" fill="black"/>
</svg>
