<svg width="40" height="40" viewBox="0 0 40 40" fill="none" xmlns="http://www.w3.org/2000/svg">
<path d="M34.5714 26.0714H32.1429C30.469 26.0714 28.8498 25.845 27.3106 25.424C26.5943 25.2283 25.829 25.3398 25.2354 25.7857L21.6998 28.4396C17.3407 26.2174 13.7708 22.6593 11.5604 18.2877L14.2131 14.7545C14.6596 14.1592 14.7705 13.3931 14.5736 12.6757C14.1538 11.1442 13.9285 9.52792 13.9285 7.85714V5.42857C13.9285 4.09271 12.8405 3 11.0031 3H7.85715C5.16416 3 2.99644 5.20446 3 7.89683C3.02133 23.9547 16.0453 36.9787 32.1032 37C34.7955 37.0036 37 34.8353 37 32.1429V28.5C37 27.1641 35.9073 26.0714 34.5714 26.0714Z" fill="url(#paint0_linear)"/>
<defs>
<linearGradient id="paint0_linear" x1="3" y1="3" x2="37" y2="37" gradientUnits="userSpaceOnUse">
<stop stop-color="#005DA0"/>
<stop offset="1" stop-color="#001F8B"/>
</linearGradient>
</defs>
</svg>
