<svg width="100" height="100" viewBox="0 0 100 100" fill="none" xmlns="http://www.w3.org/2000/svg">
<g clip-path="url(#clip0)">
<path d="M54.0429 76.6705L34.4724 96.1824C33.8867 96.534 33.1249 97.4131 31.5427 96.9441C30.7226 96.6512 29.7263 95.7135 29.5507 94.659V94.6004L23.9255 60.9676L28.496 57.5107C29.0878 57.8578 40.3816 64.4803 39.6873 64.0732L54.0427 72.5107C55.1562 73.6824 55.1562 75.4988 54.0429 76.6705Z" fill="#009AE4"/>
<path d="M99.943 6.43807L82.168 94.7178C81.9922 95.6553 81.2891 96.4756 80.3516 96.8271C80 97.0029 79.6484 97.0615 79.2969 97.0615C78.7109 97.0615 78.125 96.8857 77.5977 96.5342C77.0082 96.1131 33.8357 65.2756 36.582 67.2373C10.4414 54.2881 24.0768 61.0941 1.64062 49.8935C0.585937 49.3662 0 48.3115 0 47.1982C0.0585938 46.0263 0.703125 45.0303 1.75781 44.5615L95.9 3.15682C96.8961 2.74666 98.068 2.86385 98.8883 3.56697C99.0055 3.68416 99.1813 3.85994 99.2984 3.97713C99.8844 4.68025 100.119 5.55916 99.943 6.43807Z" fill="#25D9F8"/>
<path d="M99.2984 3.97705L39.6875 64.0731L36.5822 67.237L31.543 96.944C30.7229 96.6511 29.7266 95.7134 29.551 94.6589V94.6003L23.9258 60.9675L28.4963 57.5106L99.2984 3.97705Z" fill="#00C0F1"/>
</g>
<defs>
<clipPath id="clip0">
<rect width="100" height="100" fill="white"/>
</clipPath>
</defs>
</svg>
