<svg width="24" height="24" viewBox="0 0 24 24" fill="none" xmlns="http://www.w3.org/2000/svg">
<path d="M20.6703 3.69272C18.4051 1.32834 15.2709 -0.00600449 11.9965 2.03141e-05C5.3794 -0.008314 0.00834381 5.34919 9.49964e-06 11.9664C-0.00410745 15.2384 1.33009 18.3696 3.69271 20.6332C3.69959 20.64 3.70215 20.6503 3.70898 20.6564C3.77836 20.7232 3.85377 20.7798 3.92406 20.844C4.11686 21.0154 4.30965 21.1928 4.51274 21.3581C4.62154 21.4438 4.73465 21.5295 4.84606 21.6083C5.038 21.7514 5.22994 21.8945 5.43042 22.0265C5.56668 22.1122 5.70721 22.1979 5.84683 22.2836C6.03189 22.395 6.21615 22.5072 6.40724 22.6091C6.5692 22.6948 6.73453 22.7685 6.89906 22.8465C7.079 22.9322 7.25638 23.0178 7.44059 23.0949C7.6248 23.1721 7.80991 23.2321 7.99668 23.2989C8.18345 23.3657 8.34456 23.4274 8.52365 23.4822C8.72588 23.5431 8.93324 23.5902 9.13888 23.6407C9.31024 23.6827 9.47647 23.7307 9.653 23.765C9.88947 23.8121 10.1294 23.8421 10.3693 23.8747C10.5176 23.8953 10.6624 23.9244 10.8123 23.939C11.2048 23.9775 11.6006 23.999 11.9999 23.999C12.3992 23.999 12.7951 23.9775 13.1875 23.939C13.3375 23.9244 13.4823 23.8953 13.6305 23.8747C13.8704 23.8421 14.1103 23.8121 14.3468 23.765C14.5182 23.7307 14.6896 23.6793 14.8609 23.6407C15.0666 23.5902 15.2739 23.543 15.4762 23.4822C15.6553 23.4274 15.8283 23.3606 16.0031 23.2989C16.178 23.2372 16.3767 23.1704 16.5592 23.0949C16.7417 23.0195 16.9208 22.9313 17.1008 22.8465C17.2653 22.7685 17.4307 22.6948 17.5926 22.6091C17.7837 22.5072 17.9679 22.3949 18.153 22.2836C18.2927 22.1979 18.4332 22.1199 18.5694 22.0265C18.7699 21.8946 18.9619 21.7515 19.1538 21.6083C19.2652 21.5226 19.3782 21.4455 19.4871 21.3581C19.6902 21.1953 19.883 21.0223 20.0758 20.844C20.146 20.7798 20.2214 20.7232 20.2908 20.6564C20.2977 20.6504 20.3003 20.6401 20.3071 20.6332C25.0855 16.0555 25.248 8.47094 20.6703 3.69272ZM18.7444 19.7361C18.5884 19.8732 18.4273 20.0034 18.2645 20.1294C18.1686 20.2031 18.0726 20.2759 17.9741 20.3462C17.819 20.4584 17.6613 20.5647 17.5011 20.6666C17.3845 20.7412 17.2654 20.8132 17.1454 20.8834C16.9946 20.9691 16.8412 21.0548 16.6862 21.1405C16.549 21.2107 16.4094 21.2768 16.2689 21.3419C16.1284 21.407 15.9733 21.4764 15.8216 21.5372C15.6699 21.5981 15.5089 21.6555 15.3503 21.7086C15.2055 21.7583 15.0607 21.8097 14.9142 21.8534C14.7428 21.9048 14.5637 21.9468 14.3863 21.9896C14.2475 22.0222 14.1104 22.059 13.9699 22.0865C13.7668 22.1259 13.5595 22.1533 13.3513 22.1816C13.233 22.197 13.1157 22.2184 12.9965 22.2304C12.6675 22.2621 12.3341 22.281 11.9974 22.281C11.6607 22.281 11.3273 22.2622 10.9983 22.2304C10.8792 22.2184 10.7618 22.197 10.6435 22.1816C10.4353 22.1533 10.228 22.1259 10.0249 22.0865C9.88435 22.0591 9.74724 22.0222 9.60847 21.9896C9.43109 21.9468 9.25456 21.9039 9.08064 21.8534C8.93414 21.8097 8.78929 21.7583 8.6445 21.7086C8.48599 21.6538 8.32744 21.598 8.17321 21.5372C8.01897 21.4764 7.87332 21.4096 7.72592 21.3419C7.57851 21.2742 7.44571 21.2108 7.30865 21.1405C7.15356 21.06 7.00018 20.9751 6.84936 20.8834C6.72941 20.8132 6.61027 20.7412 6.49374 20.6666C6.33353 20.5647 6.17583 20.4584 6.02075 20.3462C5.92219 20.2759 5.82625 20.2031 5.73025 20.1294C5.56743 20.0034 5.40637 19.8723 5.25042 19.7361C5.21272 19.7078 5.17843 19.6718 5.14163 19.6392C5.17993 16.7244 7.05249 14.1506 9.81411 13.217C11.1949 13.8739 12.7981 13.8739 14.179 13.217C16.9405 14.1506 18.8131 16.7243 18.8515 19.6392C18.8155 19.6718 18.7812 19.7044 18.7444 19.7361ZM9.0086 6.8702C9.93637 5.22021 12.026 4.63475 13.676 5.56252C15.326 6.49029 15.9115 8.57994 14.9837 10.2299C14.6759 10.7774 14.2235 11.2298 13.676 11.5376C13.6717 11.5376 13.6666 11.5376 13.6615 11.5427C13.4342 11.6692 13.1941 11.7709 12.9451 11.8461C12.9006 11.8589 12.8594 11.8761 12.8123 11.8872C12.7266 11.9095 12.6366 11.9249 12.5484 11.9403C12.3822 11.9694 12.214 11.9863 12.0454 11.9909H11.9477C11.7791 11.9863 11.6109 11.9694 11.4447 11.9403C11.359 11.9249 11.2682 11.9095 11.1808 11.8872C11.1354 11.8761 11.0951 11.8589 11.048 11.8461C10.7991 11.7709 10.5589 11.6693 10.3317 11.5427L10.3163 11.5376C8.66629 10.6098 8.08083 8.5202 9.0086 6.8702ZM20.3715 17.9401C19.8217 15.3754 18.1328 13.2011 15.7839 12.0338C17.704 9.94215 17.565 6.68991 15.4733 4.76976C13.3816 2.8496 10.1294 2.98867 8.20926 5.08033C6.40412 7.04673 6.40412 10.0675 8.20926 12.0338C5.86034 13.2012 4.17148 15.3754 3.62162 17.9401C0.335892 13.3119 1.42417 6.89641 6.05238 3.61068C10.6806 0.324958 17.0961 1.41324 20.3818 6.04144C21.617 7.78125 22.28 9.86237 22.2789 11.9961C22.2789 14.1279 21.612 16.2063 20.3715 17.9401Z" fill="black"/>
</svg>
