<svg width="40" height="40" viewBox="0 0 40 40" fill="none" xmlns="http://www.w3.org/2000/svg">
<path d="M20.0043 1.33331H19.995C9.70267 1.33331 1.33301 9.70531 1.33301 20C1.33301 24.0833 2.64901 27.868 4.88667 30.941L2.56034 37.8756L9.73534 35.582C12.687 37.5373 16.208 38.6666 20.0043 38.6666C30.2967 38.6666 38.6663 30.2923 38.6663 20C38.6663 9.70765 30.2967 1.33331 20.0043 1.33331Z" fill="url(#paint0_linear)"/>
<path d="M31.6434 28.2425C31.1609 29.605 29.2459 30.735 27.7184 31.065C26.6734 31.2875 25.3084 31.465 20.7134 29.56C14.8359 27.125 11.0509 21.1525 10.7559 20.765C10.4734 20.3775 8.38086 17.6025 8.38086 14.7325C8.38086 11.8625 9.83836 10.465 10.4259 9.86502C10.9084 9.37252 11.7059 9.14752 12.4709 9.14752C12.7184 9.14752 12.9409 9.16002 13.1409 9.17002C13.7284 9.19502 14.0234 9.23002 14.4109 10.1575C14.8934 11.32 16.0684 14.19 16.2084 14.485C16.3509 14.78 16.4934 15.18 16.2934 15.5675C16.1059 15.9675 15.9409 16.145 15.6459 16.485C15.3509 16.825 15.0709 17.085 14.7759 17.45C14.5059 17.7675 14.2009 18.1075 14.5409 18.695C14.8809 19.27 16.0559 21.1875 17.7859 22.7275C20.0184 24.715 21.8284 25.35 22.4759 25.62C22.9584 25.82 23.5334 25.7725 23.8859 25.3975C24.3334 24.915 24.8859 24.115 25.4484 23.3275C25.8484 22.7625 26.3534 22.6925 26.8834 22.8925C27.4234 23.08 30.2809 24.4925 30.8684 24.785C31.4559 25.08 31.8434 25.22 31.9859 25.4675C32.1259 25.715 32.1259 26.8775 31.6434 28.2425Z" fill="white"/>
<defs>
<linearGradient id="paint0_linear" x1="1.33301" y1="1.33331" x2="38.6663" y2="38.6666" gradientUnits="userSpaceOnUse">
<stop stop-color="#005DA0"/>
<stop offset="1" stop-color="#001F8B"/>
</linearGradient>
</defs>
</svg>
