<svg width="120" height="120" viewBox="0 0 120 120" fill="none" xmlns="http://www.w3.org/2000/svg">
<path d="M101.422 26.3595C91.1777 26.3595 82.8436 34.6936 82.8436 44.9377C82.8436 46.3341 83.1005 47.6909 83.5919 48.9532H59.0002C67.8337 40.7198 67.2811 30.1997 67.2811 29.8751C67.2811 19.631 58.947 11.2969 48.7029 11.2969C38.4588 11.2969 30.1247 19.631 30.1247 29.8751C30.1247 31.2715 30.3816 32.6283 30.873 33.8906H3.51562C1.57406 33.8906 0 35.4647 0 37.4063C0 39.3478 1.57406 40.9219 3.51562 40.9219H41.172H41.1806C46.6973 40.9177 52.219 36.5365 52.219 29.8751C52.219 27.9335 50.6449 26.3595 48.7034 26.3595C46.7618 26.3595 45.1877 27.9335 45.1877 29.8751V29.8814V29.8819C45.1845 31.7583 43.6873 33.8864 41.1783 33.8906C41.1764 33.8906 41.1741 33.8906 41.1722 33.8906C38.9805 33.8906 37.1566 32.1244 37.1566 29.8751C37.1566 23.508 42.3366 18.3281 48.7036 18.3281C55.0706 18.3281 60.2505 23.508 60.2505 29.8751C60.2505 40.5016 51.6455 48.9532 41.1724 48.9532H3.51562C1.57406 48.9532 0 50.5273 0 52.4688C0 54.4104 1.57406 55.9845 3.51562 55.9845H93.8906C99.9818 55.9845 104.937 51.0288 104.937 44.9377C104.937 42.9961 103.363 41.422 101.422 41.422C99.4802 41.422 97.9062 42.9961 97.9062 44.9377C97.9062 47.1518 96.1048 48.9532 93.8906 48.9532C91.6985 48.9532 89.8751 47.1865 89.8751 44.9377C89.8751 38.5706 95.055 33.3907 101.422 33.3907C107.789 33.3907 112.969 38.5706 112.969 44.9374C112.969 55.5708 104.357 64.0155 93.8906 64.0155H3.51562C1.57406 64.0155 0 65.5896 0 67.5312C0 69.4727 1.57406 71.0468 3.51562 71.0468H67.5312C78.0143 71.0468 86.6093 79.5037 86.6093 90.1249C86.6093 96.492 81.4294 101.672 75.0623 101.672C68.6953 101.672 63.5156 96.492 63.5156 90.1249C63.5156 87.8714 65.3393 86.1094 67.5312 86.1094C69.7453 86.1094 71.5467 87.9108 71.5467 90.1249C71.5467 92.0665 73.1208 93.6405 75.0623 93.6405C77.0039 93.6405 78.578 92.0665 78.578 90.1249C78.578 84.0338 73.6223 79.0781 67.5312 79.0781H3.51562C1.57406 79.0781 0 80.6522 0 82.5938C0 84.5353 1.57406 86.1094 3.51562 86.1094H57.232C56.741 87.372 56.4844 88.7283 56.4844 90.1249C56.4844 100.369 64.8185 108.703 75.0626 108.703C85.3066 108.703 93.6408 100.369 93.6408 90.1249C93.6408 89.8195 94.1939 79.282 85.3622 71.0468H93.8906C108.226 71.0468 120 59.4717 120 44.9374C120 34.6934 111.666 26.3595 101.422 26.3595Z" fill="url(#paint0_linear)"/>
<path d="M44.9374 94.1406H3.51562C1.57406 94.1406 0 95.7147 0 97.6562C0 99.5978 1.57406 101.172 3.51562 101.172H44.9374C46.879 101.172 48.453 99.5978 48.453 97.6562C48.453 95.7147 46.8792 94.1406 44.9374 94.1406Z" fill="url(#paint1_linear)"/>
<path d="M3.51562 25.8594H18.5782C20.5198 25.8594 22.0938 24.2853 22.0938 22.3438C22.0938 20.4022 20.5198 18.8281 18.5782 18.8281H3.51562C1.57406 18.8281 0 20.4022 0 22.3438C0 24.2853 1.57406 25.8594 3.51562 25.8594Z" fill="url(#paint2_linear)"/>
<defs>
<linearGradient id="paint0_linear" x1="0" y1="11.2969" x2="95.3247" y2="128.733" gradientUnits="userSpaceOnUse">
<stop stop-color="#005DA0"/>
<stop offset="1" stop-color="#001F8B"/>
</linearGradient>
<linearGradient id="paint1_linear" x1="0" y1="94.1406" x2="1.99859" y2="107.913" gradientUnits="userSpaceOnUse">
<stop stop-color="#005DA0"/>
<stop offset="1" stop-color="#001F8B"/>
</linearGradient>
<linearGradient id="paint2_linear" x1="0" y1="18.8281" x2="4.06374" y2="31.5974" gradientUnits="userSpaceOnUse">
<stop stop-color="#005DA0"/>
<stop offset="1" stop-color="#001F8B"/>
</linearGradient>
</defs>
</svg>
