<svg width="120" height="120" viewBox="0 0 120 120" fill="none" xmlns="http://www.w3.org/2000/svg">
<path d="M60 84.6094C67.7541 84.6094 74.0625 78.3009 74.0625 70.5469C74.0625 62.7928 67.7541 56.4844 60 56.4844C52.2459 56.4844 45.9375 62.7928 45.9375 70.5469C45.9375 78.3009 52.2459 84.6094 60 84.6094ZM60 63.5156C63.877 63.5156 67.0312 66.6698 67.0312 70.5469C67.0312 74.4239 63.877 77.5781 60 77.5781C56.123 77.5781 52.9688 74.4239 52.9688 70.5469C52.9688 66.6698 56.123 63.5156 60 63.5156Z" fill="url(#paint0_linear)"/>
<path d="M60 49.4531C67.7541 49.4531 74.0625 43.1447 74.0625 35.3906C74.0625 29.3895 65.9644 14.2228 63.0656 9.06C62.4431 7.95164 61.271 7.26562 60 7.26562C58.729 7.26562 57.5569 7.95164 56.9344 9.06C54.0183 14.2537 45.9375 29.3967 45.9375 35.3906C45.9375 43.1447 52.2459 49.4531 60 49.4531ZM60 18.2063C63.7648 25.511 67.0312 33.0012 67.0312 35.3906C67.0312 39.2677 63.877 42.4219 60 42.4219C56.123 42.4219 52.9688 39.2677 52.9688 35.3906C52.9688 33.0009 56.2352 25.5108 60 18.2063Z" fill="url(#paint1_linear)"/>
<path d="M85.2007 65.686C83.2894 65.3379 81.4598 66.6038 81.1113 68.5137C80.763 70.4239 82.0291 72.2548 83.9391 72.6031C92.1877 74.1076 112.969 79.7258 112.969 88.125C112.969 92.0623 107.621 96.4067 98.6637 99.7465C88.3615 103.588 74.6304 105.703 60 105.703C45.3696 105.703 31.6385 103.588 21.3363 99.7465C12.379 96.4067 7.03125 92.0623 7.03125 88.125C7.03125 79.7258 27.8123 74.1075 36.0609 72.6033C37.9709 72.255 39.2372 70.4241 38.8887 68.514C38.5402 66.6038 36.7099 65.3386 34.7993 65.6862C13.009 69.66 0 78.0486 0 88.125C0 95.3283 6.705 101.795 18.8798 106.335C29.9484 110.462 44.5516 112.734 60 112.734C75.4484 112.734 90.0516 110.462 101.12 106.335C113.295 101.795 120 95.3283 120 88.125C120 78.0486 106.991 69.6601 85.2007 65.686Z" fill="url(#paint2_linear)"/>
<path d="M42.0005 82.0204C41.704 80.1016 39.9082 78.7865 37.9891 79.0827C26.3044 80.8881 21.0938 83.6767 21.0938 88.1247C21.0938 93.2613 28.1728 95.3228 34.3402 96.5451C41.2598 97.9164 50.3726 98.6716 60 98.6716C69.6274 98.6716 78.7402 97.9164 85.6598 96.5451C91.8272 95.3228 98.9062 93.2613 98.9062 88.1247C98.9062 83.6767 93.6956 80.8881 82.0109 79.0827C80.0904 78.7863 78.296 80.1013 77.9995 82.0204C77.703 83.9395 79.0184 85.7353 80.9372 86.0317C85.3573 86.7147 88.2284 87.4982 89.9805 88.1406C88.4641 88.7029 85.9973 89.4002 82.0624 90.0527C75.8899 91.0764 68.0545 91.6403 60 91.6403C51.9455 91.6403 44.1101 91.0764 37.9376 90.0524C34.0027 89.3997 31.5361 88.7027 30.0195 88.1404C31.7716 87.498 34.6427 86.7145 39.0628 86.0315C40.9816 85.735 42.297 83.9392 42.0005 82.0204Z" fill="url(#paint3_linear)"/>
<defs>
<linearGradient id="paint0_linear" x1="45.9375" y1="56.4844" x2="74.0625" y2="84.6094" gradientUnits="userSpaceOnUse">
<stop stop-color="#005DA0"/>
<stop offset="1" stop-color="#001F8B"/>
</linearGradient>
<linearGradient id="paint1_linear" x1="45.9375" y1="7.26563" x2="84.8798" y2="33.2272" gradientUnits="userSpaceOnUse">
<stop stop-color="#005DA0"/>
<stop offset="1" stop-color="#001F8B"/>
</linearGradient>
<linearGradient id="paint2_linear" x1="0" y1="65.6284" x2="32.0449" y2="147.261" gradientUnits="userSpaceOnUse">
<stop stop-color="#005DA0"/>
<stop offset="1" stop-color="#001F8B"/>
</linearGradient>
<linearGradient id="paint3_linear" x1="21.0938" y1="79.041" x2="30.4059" y2="115.953" gradientUnits="userSpaceOnUse">
<stop stop-color="#005DA0"/>
<stop offset="1" stop-color="#001F8B"/>
</linearGradient>
</defs>
</svg>
