<svg width="100" height="100" viewBox="0 0 100 100" fill="none" xmlns="http://www.w3.org/2000/svg">
<path d="M70.9947 0H56.7869C42.3926 0 27.8679 10.6293 27.8679 34.3762C27.8679 46.6766 33.081 56.2564 42.6373 61.7047L25.1467 93.3631C24.3174 94.8604 24.2957 96.5572 25.0885 97.9021C25.8625 99.2156 27.2779 100 28.8732 100H37.7211C39.731 100 41.2982 99.0285 42.0498 97.3266L58.4492 65.25H59.6461V96.0022C59.6461 98.1693 61.4748 100 63.6394 100H71.3687C73.7963 100 75.491 98.3051 75.491 95.8781V4.37559C75.4914 1.79941 73.6426 0 70.9947 0ZM59.6461 51.0012H57.5347C49.3482 51.0012 44.4609 44.3187 44.4609 33.1256C44.4609 19.2078 50.6347 14.249 56.4129 14.249H59.6461V51.0012Z" fill="#D7143A"/>
</svg>
